<svg xmlns="http://www.w3.org/2000/svg" viewBox="0 0 444.422 444.422 " width="21px" height="21px">
   <g fill="#000">
     <path d="M307.89 407.148c.453-.237.928-.453 1.381-.669-.173-.259-.345-.475-.496-.733-.259.41-.604.971-.885 1.402zM219.493 400.354c-35.786 0-69.134-10.268-97.586-27.762 25.605.259-19.047-38.957 11.713-44.975 32.27-6.342 45.859-43.249 35.527-42.689-10.311.539-29.94-5.328-43.746-22.671-13.827-17.472-25.928-13.482-40.186-10.742-12.468 2.459-27.826 38.525-31.644 47.995-9.707-18.594-16.286-39.022-19.263-60.614 15.833-8.283 41.675-22.218 51.015-29.919 13.762-11.411-4.595-16.027-6.86-22.908-2.243-6.881 0-22.908 0-38.827 0-16.07 32.054-16.07 43.422-32.054 8.175-11.411-6.795-36.584-16.135-50.217 31.558-24.289 70.946-38.892 113.743-38.892 11.346 0 22.412 1.186 33.219 3.128 3.171 19.716 9.772 46.83 22.52 53.905 20.643 11.433 45.622 36.606 54.854 41.135 9.189 4.573 20.557 43.53 18.314 59.535-1.618 11.303-15.639 23.749-21.377 35.721l95.343 59.406c6.73-20.708 10.44-42.732 10.44-65.661C432.806 95.645 337.075 0 219.515 0 101.889 0 6.223 95.645 6.223 213.249c0 117.625 95.666 213.313 213.292 213.313 4.465 0 8.822-.41 13.223-.669l-4.983-25.971c-2.761.13-5.479.432-8.262.432zm184.84-159.495c-4.034-16.006-11.842-31.45-28.452-43.379-11.368-8.024-20.643-43.444-13.741-54.919 4.12-6.838 14.841-12.856 22.736-16.609 13.827 26.079 21.722 55.76 21.722 87.297 0 9.405-.928 18.572-2.265 27.61z"></path>
     <path d="M349.133 334.455l89.066-17.753-223.128-139.023-5.263 3.667 49.677 258.094 48.491-76.727L355 431.222c8.93 12.899 25.324 17.062 36.692 9.275 11.303-7.809 13.331-24.634 4.465-37.555l-47.024-68.487z"></path>
   </g>
 </svg>