<svg xmlns="http://www.w3.org/2000/svg" viewBox="0 0 240 240">
  <path fill="#fff" d="M0,116.3C0,72,38.6,3.8,116.3,3.8,26.1,27.1,22.3,110.5,31.1,135c17.7,49.2,58.2,70.6,106.2,65.5,51.2-5.5,72.3-48.4,72.3-81.5,0-50-40.5-90.6-90.6-90.6s-56.9,14.7-73.3,37.4C87.8-5.5,179,3.2,218.3,53.4c23.7,30.2,21.6,60.7,21.7,69v1.4c0,58.8-47.6,107.1-108.4,112.1-4.3.5-25.2.3-30.9-.6h-.2c-21.7-2.9-54.9-14.8-77.8-45C6.8,169.2,0,144.9,0,116.3Z"/>
	<path fill="#fff" d="M174.6,171.8c-21.4,23.2-57.5,30.7-85.9,13,50.2,9.4,72-20.2,79.5-37,15.1-33.8,5.3-63.5-20.9-82.8-28-20.6-59.2-7.8-75.1,9.5-24.1,26.1-23.7,65.8,1.1,88.7,14.9,13.8,35.2,18.3,54.3,14.1-6,1.7-12.1,2.7-18.2,3.1-38.7,2.1-70.3-27.7-71.1-66.4,0-2.5,0-5.1.2-7.7.9-11.6,4.2-23,10.1-33.3,2.8-5,6.3-9.8,10.2-14.2.2-.3.5-.5.7-.8,28.4-30.7,75.3-34.1,107.8-8.9,2.4,1.7,12.5,11.4,15.1,14.5,0,0,0,0,0,0,9.4,11.4,20,32.9,16.8,59.1-2.3,18.3-10.8,34.2-24.6,49Z"/>
	<path fill="#fff" d="M61.1,122c-2.4-20.5,9.1-41.6,29.9-48.2-25.9,21-20.5,44.3-15.3,55.2,10.4,21.8,29.3,29.5,50,24.6,22.1-5.2,29-26.1,27.1-41.3-2.7-23.1-22.7-39.7-44.6-37.1-13.1,1.5-24,9.8-29.9,21,1.6-3.7,3.8-7.1,6.2-10.3,15.3-20.2,43.5-23.3,63.1-7.2,1.3,1.1,2.5,2.2,3.8,3.4,5.4,5.3,9.7,11.8,12.3,19.1,1.3,3.5,2.2,7.2,2.7,11.1,0,.2,0,.5,0,.7,3.2,27.1-15,51.8-41.2,57.3-1.8.5-11,1.4-13.5,1.4h0c-9.7-.2-24.8-4-36.5-16.7-8.2-8.9-12.5-19.8-14.1-33Z"/>
	<path fill="#fff" d="M86,103.2c3.9-9.3,14.6-14.3,25.3-14.3s20.2,5.8,25.3,14.4c2.7,4.4,4.2,9.7,4.2,15.2,0,9.8-4.8,18.5-12.2,23.8,2.4-4,3.9-8.5,4.2-13.3-5.3,7.7-14.3,12.5-24.3,12.8-15.6.5-31.8-16.1-22.5-38.6Z"/>
</svg>