<svg xmlns="http://www.w3.org/2000/svg">
  <symbol id="telegram" viewBox="0 0 512 512"><path d="M498.1 5.6c10.1 7 15.4 19.1 13.5 31.2l-64 416c-1.5 9.7-7.4 18.2-16 23s-18.9 5.4-28 1.6L284 427.7l-68.5 74.1c-8.9 9.7-22.9 12.9-35.2 8.1S160 493.2 160 480l0-83.6c0-4 1.5-7.8 4.2-10.8L331.8 202.8c5.8-6.3 5.6-16-.4-22s-15.7-6.4-22-.7L106 360.8 17.7 316.6C7.1 311.3 .3 300.7 0 288.9s5.9-22.8 16.1-28.7l448-256c10.7-6.1 23.9-5.5 34 1.4z"/></symbol>
  <symbol id="address" viewBox="0 0 384 512"><path d="M215.7 499.2C267 435 384 279.4 384 192C384 86 298 0 192 0S0 86 0 192c0 87.4 117 243 168.3 307.2c12.3 15.3 35.1 15.3 47.4 0zM192 128a64 64 0 1 1 0 128 64 64 0 1 1 0-128z"/></symbol>
  <symbol id="phone" viewBox="0 0 512 512"><path d="M164.9 24.6c-7.7-18.6-28-28.5-47.4-23.2l-88 24C12.1 30.2 0 46 0 64C0 311.4 200.6 512 448 512c18 0 33.8-12.1 38.6-29.5l24-88c5.3-19.4-4.6-39.7-23.2-47.4l-96-40c-16.3-6.8-35.2-2.1-46.3 11.6L304.7 368C234.3 334.7 177.3 277.7 144 207.3L193.3 167c13.7-11.2 18.4-30 11.6-46.3l-40-96z"/></symbol>
  <symbol id="email" viewBox="0 0 512 512"><path d="M48 64C21.5 64 0 85.5 0 112c0 15.1 7.1 29.3 19.2 38.4L236.8 313.6c11.4 8.5 27 8.5 38.4 0L492.8 150.4c12.1-9.1 19.2-23.3 19.2-38.4c0-26.5-21.5-48-48-48L48 64zM0 176L0 384c0 35.3 28.7 64 64 64l384 0c35.3 0 64-28.7 64-64l0-208L294.4 339.2c-22.8 17.1-54 17.1-76.8 0L0 176z"/></symbol>
  <symbol id="arrow" viewBox="0 0 448 512"><path d="M438.6 278.6c12.5-12.5 12.5-32.8 0-45.3l-160-160c-12.5-12.5-32.8-12.5-45.3 0s-12.5 32.8 0 45.3L338.8 224 32 224c-17.7 0-32 14.3-32 32s14.3 32 32 32l306.7 0L233.4 393.4c-12.5 12.5-12.5 32.8 0 45.3s32.8 12.5 45.3 0l160-160z"/></symbol>
  <symbol id="logo" viewBox="0 0 240 240">
  <path d="M0,116.3C0,72,38.6,3.8,116.3,3.8,26.1,27.1,22.3,110.5,31.1,135c17.7,49.2,58.2,70.6,106.2,65.5,51.2-5.5,72.3-48.4,72.3-81.5,0-50-40.5-90.6-90.6-90.6s-56.9,14.7-73.3,37.4C87.8-5.5,179,3.2,218.3,53.4c23.7,30.2,21.6,60.7,21.7,69v1.4c0,58.8-47.6,107.1-108.4,112.1-4.3.5-25.2.3-30.9-.6h-.2c-21.7-2.9-54.9-14.8-77.8-45C6.8,169.2,0,144.9,0,116.3Z"/>
  <path d="M174.6,171.8c-21.4,23.2-57.5,30.7-85.9,13,50.2,9.4,72-20.2,79.5-37,15.1-33.8,5.3-63.5-20.9-82.8-28-20.6-59.2-7.8-75.1,9.5-24.1,26.1-23.7,65.8,1.1,88.7,14.9,13.8,35.2,18.3,54.3,14.1-6,1.7-12.1,2.7-18.2,3.1-38.7,2.1-70.3-27.7-71.1-66.4,0-2.5,0-5.1.2-7.7.9-11.6,4.2-23,10.1-33.3,2.8-5,6.3-9.8,10.2-14.2.2-.3.5-.5.7-.8,28.4-30.7,75.3-34.1,107.8-8.9,2.4,1.7,12.5,11.4,15.1,14.5,0,0,0,0,0,0,9.4,11.4,20,32.9,16.8,59.1-2.3,18.3-10.8,34.2-24.6,49Z"/>
  <path d="M61.1,122c-2.4-20.5,9.1-41.6,29.9-48.2-25.9,21-20.5,44.3-15.3,55.2,10.4,21.8,29.3,29.5,50,24.6,22.1-5.2,29-26.1,27.1-41.3-2.7-23.1-22.7-39.7-44.6-37.1-13.1,1.5-24,9.8-29.9,21,1.6-3.7,3.8-7.1,6.2-10.3,15.3-20.2,43.5-23.3,63.1-7.2,1.3,1.1,2.5,2.2,3.8,3.4,5.4,5.3,9.7,11.8,12.3,19.1,1.3,3.5,2.2,7.2,2.7,11.1,0,.2,0,.5,0,.7,3.2,27.1-15,51.8-41.2,57.3-1.8.5-11,1.4-13.5,1.4h0c-9.7-.2-24.8-4-36.5-16.7-8.2-8.9-12.5-19.8-14.1-33Z"/>
  <path d="M86,103.2c3.9-9.3,14.6-14.3,25.3-14.3s20.2,5.8,25.3,14.4c2.7,4.4,4.2,9.7,4.2,15.2,0,9.8-4.8,18.5-12.2,23.8,2.4-4,3.9-8.5,4.2-13.3-5.3,7.7-14.3,12.5-24.3,12.8-15.6.5-31.8-16.1-22.5-38.6Z"/>
  </symbol>
  <symbol id="belka" xmlns="http://www.w3.org/2000/svg" viewBox="0 0 30 14">
    <path d="M26.9,13.9c-.3-.8-1.7-2.9-2.7-4.2.6,0,2.3.1,3.5.1,1.3,0,2,0,2.2-.9.2-1-1.4-2.9-2.5-3.1-.2-.9-1.2-1.7-1.3,0,0,0-1,.8-2.2.9.2-.8,1.6-4.3,1.2-6.7h0c-7.1,6-12,3.2-19.6.2.1,2,2.6,4.4,4.9,7.3h0C7.9,6.6,3.5,2,.4,1.7c-.2,0-.4.2-.4.4.6,3.8,4.7,6,11,6.8-.2,1.7-1.1,3.3-2.9,5.1,6.3-.9,12.7-2.1,18.7-.1ZM11,8.9h0c-.2-.5-.2-.9-.5-1.4h0c2.8,1.7,8.7,1.2,12.9-.4.7,0,1.1,1,1.1,1,1.4,3.6-9.2,3.9-13.5.9Z"/>
  </symbol>
</svg>