<svg height="512pt" viewBox="0 -20 512 512" width="512pt" fill="#fff" xmlns="http://www.w3.org/2000/svg"><path d="m119 161c-22.054688 0-40 17.945312-40 40v151c0 22.054688 17.945312 40 40 40h76c22.054688 0 40-17.945312 40-40v-151c0-22.054688-17.945312-40-40-40zm76 191h-76v-151h76l.023438 151s-.003907 0-.023438 0zm236-75c0 11.046875-8.953125 20-20 20h-116c-11.046875 0-20-8.953125-20-20s8.953125-20 20-20h116c11.046875 0 20 8.953125 20 20zm0 76c0 11.046875-8.953125 20-20 20h-116c-11.046875 0-20-8.953125-20-20s8.953125-20 20-20h116c11.046875 0 20 8.953125 20 20zm0-152c0 11.046875-8.953125 20-20 20h-116c-11.046875 0-20-8.953125-20-20s8.953125-20 20-20h116c11.046875 0 20 8.953125 20 20zm21-201h-392c-33.085938 0-60 26.914062-60 60v332c0 44.113281 35.886719 80 80 80h352c44.113281 0 80-35.886719 80-80 0-11.046875-8.953125-20-20-20s-20 8.953125-20 20c0 22.054688-17.945312 40-40 40h-352c-22.054688 0-40-17.945312-40-40v-271h432v171c0 11.046875 8.953125 20 20 20s20-8.953125 20-20v-232c0-33.085938-26.914062-60-60-60zm-81 40c11.027344 0 20 8.972656 20 20s-8.972656 20-20 20-20-8.972656-20-20 8.972656-20 20-20zm100 20c0 11.027344-8.972656 20-20 20s-20-8.972656-20-20 8.972656-20 20-20 20 8.972656 20 20zm-431 0c0-11.027344 8.972656-20 20-20h254.441406c-2.222656 6.261719-3.441406 12.988281-3.441406 20 0 7.386719 1.347656 14.460938 3.800781 21h-274.800781zm0 0"/></svg>