<svg fill="none" height="63" viewBox="0 0 266 63" width="266" xmlns="http://www.w3.org/2000/svg" xmlns:xlink="http://www.w3.org/1999/xlink"><linearGradient id="a"><stop offset="0" stop-color="#0160d1"/><stop offset="1" stop-color="#00479c"/></linearGradient><linearGradient id="b" gradientUnits="userSpaceOnUse" x1="57.2192" x2="57.2192" xlink:href="#a" y1="0" y2="63"/><linearGradient id="c" gradientUnits="userSpaceOnUse" x1="12.7595" x2="12.7595" xlink:href="#a" y1="8.97156" y2="54.826"/><g fill="#000"><path d="m138.76 17.337h-8.59l-6.079 10.683h-3.129l-.1-23.11998h-8.132v41.75548h8.132l.1-11.4603h3.109l8.072 11.4603h9.009l-10.524-15.1874z"/><path d="m200.307 31.0895c-1.652-1.0691-3.443-1.9074-5.322-2.4914l-1.794-.6776-.478-.1794c-1.116-.4186-2.292-.857-2.332-1.9931-.01-.3365.064-.6702.218-.9699.153-.2998.38-.5558.659-.7442.589-.4058 1.279-.6404 1.993-.6776 1.557-.1075 3.101.3527 4.345 1.2955l.219.1395 4.345-5.0027-.219-.1793c-.541-.4823-1.128-.9096-1.754-1.2756-1.121-.6412-2.339-1.0924-3.607-1.3354-1.827-.3886-3.715-.3886-5.541 0-1.766.2337-3.441.9203-4.863 1.9931-.91.7115-1.67 1.5953-2.238 2.6007-.567 1.0054-.931 2.1128-1.071 3.259-.249 2.0684.276 4.1558 1.475 5.8597 1.592 1.7633 3.674 3.0123 5.979 3.5876l.359.1196.817.279c2.95.9966 3.787 1.3952 4.265 1.9931.223.3008.348.6625.359 1.0364 0 1.4151-1.734 1.9931-2.91 2.3519-.822.1544-1.667.1386-2.483-.0465s-1.585-.5356-2.26-1.0298c-1.093-.7306-2.028-1.6726-2.751-2.7704-.458.4784-4.963 4.923-4.883 5.0027l.14.1993c2.17 2.7173 5.211 4.6037 8.61 5.3415.776.1502 1.562.2501 2.352.299h.817c2.685.0562 5.315-.7622 7.494-2.3319 1.474-1.0425 2.604-2.4993 3.249-4.1856.392-1.132.53-2.3362.406-3.5277s-.507-2.3413-1.124-3.3684c-.63-1.0242-1.473-1.9011-2.471-2.5711z"/><path d="m226.576 31.0893c-1.645-1.069-3.428-1.9073-5.301-2.4914l-1.814-.6776-.458-.1794c-1.136-.4186-2.292-.8571-2.352-1.9931.005-.3359.089-.6658.245-.9635.156-.2976.379-.5547.652-.7506.589-.4059 1.279-.6404 1.993-.6776 1.557-.1039 3.099.3559 4.345 1.2955l.199.1395 4.345-5.0027-.199-.1794c-.545-.4869-1.139-.9145-1.774-1.2755-1.114-.6404-2.326-1.0917-3.588-1.3354-1.833-.3891-3.727-.3891-5.56 0-1.764.2406-3.438.9265-4.864 1.9931-.915.7048-1.682 1.5836-2.257 2.5858-.574 1.0022-.945 2.108-1.091 3.254-.261 2.0691.265 4.1607 1.475 5.8597 1.592 1.7633 3.674 3.0122 5.979 3.5876l.339.1196.817.279c2.97.9965 3.807 1.3952 4.285 1.9931.23.2957.35.6621.339 1.0364 0 1.4151-1.714 1.9931-2.89 2.3519-.825.1548-1.674.1392-2.493-.0458-.819-.1851-1.592-.5358-2.27-1.0305-1.084-.7413-2.017-1.6814-2.751-2.7704-.438.4783-4.943 4.9229-4.883 5.0027l.159.1993c2.171 2.7173 5.212 4.6037 8.611 5.3415.776.1514 1.562.2513 2.352.2989h.817c2.685.0563 5.315-.7622 7.494-2.3319 1.474-1.0424 2.604-2.4992 3.249-4.1855.391-1.132.53-2.3362.406-3.5277s-.507-2.3413-1.124-3.3684c-.622-1.0119-1.451-1.8812-2.432-2.5512z"/><path d="m165.467 17.3371v2.87h-.358c-2.226-2.2287-5.242-3.4892-8.391-3.5078-1.931-.0382-3.849.3308-5.627 1.0828-1.779.7521-3.38 1.8704-4.698 3.2821-2.658 2.9765-4.083 6.8531-3.986 10.8424-.103 4.0563 1.319 8.0036 3.986 11.0617 1.287 1.4127 2.862 2.5318 4.62 3.2816 1.757.7497 3.655 1.1124 5.565 1.0634 3.154-.0592 6.187-1.223 8.57-3.2886h.319v2.5711h8.451v-29.2587zm.419 14.729c.085 2.3579-.703 4.6642-2.213 6.4776-.723.8102-1.616 1.4515-2.615 1.8786-.998.427-2.079.6294-3.164.5928-1.053.0177-2.097-.2025-3.053-.6442-.956-.4418-1.8-1.0936-2.468-1.907-1.492-1.8509-2.257-4.1824-2.153-6.5573-.068-2.3034.712-4.5517 2.192-6.3181.682-.801 1.532-1.4416 2.49-1.8757.958-.4342 2-.6512 3.051-.6356 1.079-.0336 2.151.1725 3.14.6033s1.871 1.0756 2.58 1.8881c1.51 1.8213 2.297 4.1337 2.213 6.4975z"/><path d="m257.389 17.337v2.8701h-.359c-2.221-2.2239-5.228-3.4841-8.371-3.5079-1.933-.0359-3.853.3339-5.635 1.0857-1.781.7519-3.386 1.869-4.709 3.2792-2.658 2.9765-4.083 6.8532-3.986 10.8425-.103 4.0563 1.319 8.0036 3.986 11.0617 1.287 1.4126 2.862 2.5318 4.619 3.2815 1.758.7497 3.656 1.1124 5.566 1.0635 3.154-.0593 6.186-1.223 8.57-3.2886h.319v2.5711h8.451v-29.2588zm.419 14.729c.094 2.3593-.695 4.669-2.213 6.4776-.723.8102-1.616 1.4516-2.615 1.8786-.999.4271-2.079.6295-3.165.5929-1.053.0177-2.096-.2025-3.052-.6443-.956-.4417-1.8-1.0936-2.469-1.9069-1.491-1.8509-2.257-4.1824-2.152-6.5573-.068-2.3035.712-4.5517 2.192-6.3181.682-.8011 1.532-1.4416 2.49-1.8758.958-.4341 2-.6512 3.051-.6355 1.079-.0336 2.151.1724 3.14.6032s1.87 1.0757 2.58 1.8881c1.518 1.8167 2.306 4.1323 2.213 6.4975z"/></g><path d="m57.2192 0c-17.5443 0-31.5 14.1551-31.5 31.5 0 17.5443 14.1551 31.5 31.5 31.5 17.345 0 31.5-14.1551 31.5-31.5s-14.155-31.5-31.5-31.5zm0 43.0633c-6.3797 0-11.7626-5.3829-11.7626-11.7627 0-6.3797 5.3829-11.7626 11.7626-11.7626 6.3798 0 11.7627 5.3829 11.7627 11.7626-.1994 6.5791-5.3829 11.7627-11.7627 11.7627z" fill="url(#b)"/><path d="m25.519 8.97156v45.85444h-11.1646l-14.3544-45.85444z" fill="url(#c)"/></svg>