<svg height="24" viewBox="0 0 116 24" width="116" xmlns="http://www.w3.org/2000/svg" xmlns:xlink="http://www.w3.org/1999/xlink"><linearGradient id="a"><stop offset="0" stop-color="#1fadc3"/><stop offset=".7072" stop-color="#36b98f"/></linearGradient><linearGradient id="b" x1="12.285%" x2="87.742%" xlink:href="#a" y1="73.775%" y2="26.331%"/><linearGradient id="c" x1="47.881%" x2="59.926%" y1="38.082%" y2="13.982%"><stop offset="0" stop-color="#123f06" stop-opacity="0"/><stop offset="1" stop-color="#123f06"/></linearGradient><linearGradient id="d"><stop offset="0" stop-color="#9fdb57"/><stop offset="1" stop-color="#71ca5e"/></linearGradient><linearGradient id="e" x1="15.45%" x2="74.311%" xlink:href="#d" y1="24.157%" y2="72.02%"/><linearGradient id="f" x1="12.217%" x2="87.674%" xlink:href="#a" y1="73.818%" y2="26.374%"/><linearGradient id="g" x1="15.481%" x2="74.342%" xlink:href="#d" y1="24.182%" y2="72.045%"/><linearGradient id="h"><stop offset=".4185" stop-color="#123f06" stop-opacity="0"/><stop offset="1" stop-color="#123f06"/></linearGradient><radialGradient id="i" cx="-348.129%" cy="133.909%" gradientTransform="matrix(1 0 0 .875 0 .167)" r="497.59%" xlink:href="#h"/><radialGradient id="j" cx="-347.288%" cy="133.909%" gradientTransform="matrix(1 0 0 .875 0 .167)" r="497.59%" xlink:href="#h"/><g fill="none" fill-rule="evenodd"><path d="m.85 18.595-.264-.226c-.643-.549-.756-1.55-.17-2.193l6.878-7.861c.549-.643 1.55-.756 2.193-.17l.264.227c.643.548.756 1.55.17 2.192l-6.878 7.861c-.549.643-1.512.718-2.193.17z" fill="url(#b)" transform="translate(96.189)"/><path d="m6.369 9.676-.133-.152-1.058 1.21.113.132c1.815 1.814 1.04 3.647.624 4.29l.151-.17c.246-.284.624-.718 1.02-1.19.416-.719 1.002-2.42-.717-4.12z" fill="url(#c)" opacity=".4" transform="translate(96.189)"/><path d="m8.636 12.038.284-.321c.019-.038.056-.076.075-.114-.302.34-.623.7-.926 1.058.227-.245.416-.453.567-.623z" fill="url(#i)" opacity=".4" transform="translate(96.189)"/><path d="m9.96 8.56-6.88-7.86c-.548-.644-1.55-.758-2.192-.17l-.264.225c-.643.548-.756 1.55-.17 2.192l5.801 6.576.132.152c1.72 1.72 1.134 3.42.7 4.138.34-.397.68-.794 1.001-1.153.303-.359.624-.718.926-1.058.303-.34.586-.661.775-.87.661-.642.756-1.53.17-2.172z" fill="url(#e)" transform="translate(96.189)"/><path d="m.888 18.595-.264-.226c-.643-.549-.756-1.55-.17-2.193l6.878-7.861c.548-.643 1.55-.756 2.192-.17l.265.227c.642.548.756 1.55.17 2.192l-6.879 7.861c-.548.643-1.511.718-2.192.17z" fill="url(#f)" transform="translate(104.882)"/><path d="m6.482 9.6-.132-.151-1.059 1.21.114.132c1.814 1.814 1.04 3.647.623 4.29l.152-.17c.245-.284.623-.719 1.02-1.191.416-.718 1.002-2.42-.718-4.12z" fill="url(#c)" opacity=".4" transform="translate(104.882)"/><path d="m8.655 12.038.284-.321c.018-.038.056-.076.075-.114-.302.34-.623.7-.926 1.058.227-.245.435-.453.567-.623z" fill="url(#j)" opacity=".4" transform="translate(104.882)"/><path d="m9.978 8.56-6.879-7.86c-.548-.644-1.549-.758-2.192-.17l-.264.225c-.643.549-.756 1.551-.17 2.193l5.801 6.576.132.152c1.72 1.72 1.134 3.42.7 4.138.34-.397.68-.794 1.001-1.153.302-.359.624-.718.926-1.058s.586-.661.775-.87c.661-.642.756-1.53.17-2.172z" fill="url(#g)" transform="translate(104.882)"/><path d="m30.539.076c1.795 0 3.382.396 4.705 1.152 1.342.794 2.362 1.909 3.08 3.326.719 1.437 1.078 3.137 1.078 5.084 0 2.097-.416 3.93-1.267 5.423-.831 1.512-2.04 2.608-3.609 3.308.813.264 1.474.869 2.022 1.757l.945 1.417c.189.322.302.624.302.945 0 .397-.15.737-.472.983-.321.246-.7.397-1.115.397-.321 0-.624-.076-.907-.227-.265-.151-.51-.378-.7-.661l-1.549-2.57c-.246-.416-.567-.719-.964-.908s-.907-.302-1.55-.302c-1.832 0-3.401-.397-4.743-1.153-1.341-.793-2.362-1.908-3.08-3.326-.718-1.455-1.077-3.156-1.077-5.083 0-1.947.378-3.629 1.077-5.084.718-1.436 1.757-2.532 3.08-3.326 1.342-.793 2.91-1.152 4.745-1.152zm45.26.018c.453 0 .812.19 1.133.586l5.424 6.728 5.404-6.728c.32-.378.718-.567 1.171-.567.397 0 .756.152 1.077.473.322.321.473.661.473 1.115 0 .34-.132.699-.397 1.02l-6.028 7.351v7.352c0 .548-.151.963-.473 1.285-.321.32-.718.453-1.21.453-.51 0-.944-.151-1.265-.453-.322-.303-.473-.718-.473-1.285v-7.352l-5.99-7.37c-.265-.32-.397-.661-.397-1.02 0-.416.151-.794.472-1.115.322-.321.7-.473 1.077-.473zm-24.53.152c2.003 0 3.553.491 4.668 1.511 1.115.983 1.682 2.4 1.682 4.196 0 1.795-.567 3.212-1.682 4.214-1.115 1.02-2.665 1.512-4.668 1.512h-4.743v5.707c0 .548-.151.964-.472 1.266-.322.321-.737.472-1.267.472-.51-.018-.944-.17-1.228-.49-.321-.322-.472-.738-.472-1.267v-15.515c0-.51.15-.907.453-1.19.303-.265.7-.416 1.21-.416h6.52zm-34.866-.152c.51 0 .964.152 1.266.473.322.321.473.718.473 1.228v15.572c0 .51-.151.945-.473 1.266-.321.321-.737.473-1.266.473-.491 0-.907-.152-1.228-.473s-.473-.737-.473-1.266v-15.572c0-.51.152-.907.473-1.228s.718-.473 1.228-.473zm50.041-.018c.378 0 .718.094 1.04.264.32.19.566.454.736.813l7.352 15.741c.075.246.132.454.132.7 0 .397-.17.737-.491 1.04-.322.264-.7.415-1.134.415-.265 0-.548-.076-.794-.227s-.454-.397-.586-.7l-1.606-3.552h-9.298l-1.606 3.553c-.151.321-.34.548-.586.699s-.51.227-.812.227c-.397 0-.794-.151-1.115-.416-.34-.264-.492-.624-.492-1.04 0-.226.057-.472.151-.699l7.333-15.741c.15-.34.397-.624.737-.813.321-.189.661-.264 1.04-.264zm-64.724.037c.51 0 .963.152 1.266.473.321.321.472.718.472 1.228v14.343h7.427c1.058 0 1.606.473 1.606 1.399s-.548 1.398-1.606 1.398h-9.26c-.51 0-.907-.15-1.19-.434-.265-.265-.416-.662-.416-1.153v-15.553c0-.51.151-.907.472-1.228.322-.321.719-.473 1.229-.473zm28.78 2.647c-1.738 0-3.08.586-4.043 1.758-.964 1.19-1.455 2.853-1.455 5.083s.49 3.893 1.455 5.083c.963 1.191 2.324 1.777 4.044 1.777s3.061-.586 4.025-1.777c.964-1.19 1.455-2.89 1.455-5.083 0-2.23-.491-3.893-1.455-5.083-.964-1.191-2.287-1.758-4.025-1.758zm35.944 1.304-3.496 7.861h7.011zm-15.61-1.154h-4.308v6.142l4.309.019c2.343 0 3.534-1.04 3.534-3.08 0-2.041-1.191-3.08-3.534-3.08z" fill="#000"/></g></svg>