<svg viewBox="0 0 270.4 60.6" xmlns="http://www.w3.org/2000/svg"><g fill="#1f769a"><path d="m108.4 18.4c0 1.3-.2 2.4-.6 3.3-.4 1-1 1.8-1.7 2.4-.7.7-1.7 1.2-2.8 1.5s-2.4.5-3.8.5h-1.9v7.2c0 .1 0 .2-.1.3s-.2.2-.4.2c-.2.1-.4.1-.7.1s-.7.1-1.1.1-.8 0-1.1-.1c-.3 0-.5-.1-.7-.1-.2-.1-.3-.1-.4-.2s-.1-.2-.1-.3v-20.1c0-.5.1-.9.4-1.2s.7-.4 1.1-.4h5.3c.5 0 1 0 1.5.1.5 0 1.1.1 1.7.3.7.1 1.3.4 2 .7.7.4 1.3.8 1.8 1.4.5.5.9 1.2 1.1 1.9.3.7.5 1.5.5 2.4zm-4.8.3c0-.8-.1-1.4-.4-1.9s-.6-.9-1-1.1-.8-.4-1.3-.5c-.4-.1-.9-.1-1.4-.1h-1.9v7.6h2c.7 0 1.3-.1 1.8-.3s.9-.5 1.2-.8c.3-.4.5-.8.7-1.3s.3-1 .3-1.6z"/><path d="m127.1 33.4c0 .2-.1.3-.2.4s-.3.2-.5.2-.6.1-1.1.1-.9 0-1.1-.1c-.2 0-.4-.1-.5-.2s-.1-.2-.1-.4v-1.2c-.6.7-1.4 1.2-2.2 1.6s-1.7.6-2.7.6c-.8 0-1.6-.1-2.3-.3s-1.3-.5-1.8-1c-.5-.4-.9-.9-1.2-1.6-.3-.6-.4-1.4-.4-2.2 0-.9.2-1.7.5-2.3.4-.7.9-1.2 1.6-1.6s1.6-.8 2.6-1 2.2-.3 3.6-.3h1.5v-.9c0-.5 0-.9-.1-1.3s-.3-.7-.5-.9-.5-.4-.9-.5-.8-.2-1.4-.2c-.7 0-1.4.1-1.9.2-.6.2-1.1.3-1.5.5s-.8.4-1.1.5c-.3.2-.5.2-.7.2-.1 0-.2 0-.3-.1s-.2-.2-.2-.3c-.1-.1-.1-.3-.1-.6 0-.2-.1-.5-.1-.7 0-.4 0-.6.1-.8s.2-.4.3-.6c.2-.2.4-.4.8-.6s.9-.4 1.4-.6 1.1-.3 1.8-.4c.6-.1 1.3-.2 2-.2 1.2 0 2.2.1 3.1.4.9.2 1.6.6 2.1 1.1.6.5 1 1.1 1.2 1.9.3.8.4 1.7.4 2.7v10.5zm-4.3-6.6h-1.7c-.7 0-1.3.1-1.8.2s-.9.3-1.2.5-.5.5-.7.8c-.1.3-.2.6-.2 1 0 .6.2 1.2.6 1.5.4.4 1 .6 1.7.6.6 0 1.2-.2 1.7-.5s1-.8 1.6-1.4z"/><path d="m142.7 34-1.9 5.5c-.1.3-.4.5-.8.6-.5.1-1.1.2-2 .2-.5 0-.8 0-1.1-.1-.3 0-.5-.1-.6-.2s-.2-.2-.2-.3 0-.3.1-.5l2-5.2c-.2-.1-.3-.2-.4-.3s-.2-.3-.3-.5l-5.3-14.2c-.1-.4-.2-.7-.2-.9s.1-.4.2-.5.4-.2.7-.3c.3 0 .8-.1 1.3-.1h1.2c.3 0 .5.1.7.1.2.1.3.2.4.3s.2.3.2.6l3.7 10.3h.1l3.3-10.5c.1-.3.2-.5.3-.6s.3-.2.5-.2c.3 0 .7-.1 1.3-.1.5 0 .9 0 1.2.1.3 0 .6.1.7.3.2.1.2.3.2.5s0 .5-.1.8z"/><path d="m179.9 33.4c0 .1 0 .2-.1.3s-.2.2-.3.2c-.2.1-.4.1-.7.1s-.6.1-1.1.1c-.4 0-.8 0-1-.1-.3 0-.5-.1-.7-.1-.2-.1-.3-.1-.3-.2-.1-.1-.1-.2-.1-.3v-18.3l-6.5 18.2c0 .2-.1.3-.2.4s-.2.2-.4.2c-.2.1-.4.1-.7.1s-.6 0-1 0-.7 0-1 0-.5-.1-.7-.1c-.2-.1-.3-.1-.4-.2s-.2-.2-.2-.3l-6.2-18.2v18.2c0 .1 0 .2-.1.3s-.2.2-.4.2c-.2.1-.4.1-.7.1s-.6.1-1 .1-.8 0-1-.1c-.3 0-.5-.1-.7-.1-.2-.1-.3-.1-.3-.2-.1-.1-.1-.2-.1-.3v-20c0-.6.2-1 .5-1.3s.7-.5 1.2-.5h3c.5 0 1 0 1.4.1s.7.2 1 .4.5.5.7.8.3.7.5 1.2l4.8 13.3h.1l5-13.3c.2-.5.3-.9.5-1.2s.4-.6.6-.8.5-.4.8-.4c.3-.1.7-.1 1.1-.1h3.1c.3 0 .6 0 .8.1s.4.2.6.4c.1.2.3.3.3.6.1.2.1.5.1.8v19.9z"/><path d="m200.7 33.4c0 .2-.1.3-.2.4s-.3.2-.5.2-.6.1-1.1.1-.9 0-1.1-.1c-.2 0-.4-.1-.5-.2s-.1-.2-.1-.4v-1.2c-.6.7-1.4 1.2-2.2 1.6s-1.7.6-2.7.6c-.8 0-1.6-.1-2.3-.3s-1.3-.5-1.8-1c-.5-.4-.9-.9-1.2-1.6-.3-.6-.4-1.4-.4-2.2 0-.9.2-1.7.5-2.3.4-.7.9-1.2 1.6-1.6s1.6-.8 2.6-1 2.2-.3 3.6-.3h1.5v-.9c0-.5 0-.9-.1-1.3s-.3-.7-.5-.9-.5-.4-.9-.5-.8-.2-1.4-.2c-.7 0-1.4.1-1.9.2-.6.2-1.1.3-1.5.5s-.8.4-1.1.5c-.3.2-.5.2-.7.2-.1 0-.2 0-.3-.1s-.2-.2-.2-.3c-.1-.1-.1-.3-.1-.6 0-.2-.1-.5-.1-.7 0-.4 0-.6.1-.8s.2-.4.3-.6c.2-.2.4-.4.8-.6s.9-.4 1.4-.6 1.1-.3 1.8-.4c.6-.1 1.3-.2 2-.2 1.2 0 2.2.1 3.1.4.9.2 1.6.6 2.1 1.1.6.5 1 1.1 1.2 1.9.3.8.4 1.7.4 2.7v10.5zm-4.3-6.6h-1.7c-.7 0-1.3.1-1.8.2s-.9.3-1.2.5-.5.5-.7.8c-.1.3-.2.6-.2 1 0 .6.2 1.2.6 1.5.4.4 1 .6 1.7.6.6 0 1.2-.2 1.7-.5s1-.8 1.6-1.4z"/><path d="m218.9 29c0 .9-.2 1.6-.5 2.3s-.8 1.2-1.4 1.7c-.6.4-1.3.8-2.1 1s-1.7.3-2.7.3c-.6 0-1.1 0-1.7-.1-.5-.1-1-.2-1.4-.3s-.8-.3-1-.4c-.3-.1-.5-.3-.6-.4s-.2-.3-.3-.6-.1-.6-.1-1.2c0-.3 0-.6 0-.8s.1-.4.1-.5.1-.2.2-.2.2-.1.3-.1.3.1.6.2c.2.1.6.3.9.5.4.2.8.3 1.3.5.5.1 1 .2 1.7.2.4 0 .7 0 1-.1s.6-.2.8-.3.4-.3.5-.6c.1-.2.2-.5.2-.8s-.1-.6-.3-.9c-.2-.2-.5-.5-.8-.6-.4-.2-.8-.4-1.2-.5-.4-.2-.9-.3-1.4-.5s-.9-.4-1.4-.7c-.4-.3-.8-.6-1.2-.9-.4-.4-.6-.8-.8-1.3s-.3-1.1-.3-1.9c0-.7.1-1.4.4-2s.7-1.1 1.2-1.6c.5-.4 1.2-.8 2-1s1.7-.4 2.6-.4c.5 0 1 0 1.4.1.5.1.9.2 1.2.3.4.1.7.2.9.3.3.1.4.2.5.3s.2.2.2.3.1.2.1.3 0 .3.1.4v.7.8c0 .2 0 .4-.1.5 0 .1-.1.2-.2.2s-.2.1-.2.1c-.1 0-.3-.1-.5-.2s-.5-.3-.8-.4-.7-.3-1.1-.4-.9-.2-1.5-.2c-.4 0-.7 0-1 .1s-.5.2-.7.3c-.2.2-.3.3-.4.5s-.1.4-.1.6c0 .4.1.7.3.9s.5.5.9.6c.4.2.8.4 1.2.5.5.2.9.3 1.4.5s.9.4 1.4.7.9.6 1.2.9c.4.4.6.8.9 1.3.2.7.3 1.3.3 2z"/><path d="m233.9 31.9c0 .5 0 .9-.1 1.2s-.1.5-.3.6c-.1.1-.3.2-.5.3s-.4.2-.7.2c-.3.1-.6.1-.9.1s-.6.1-1 .1c-.9 0-1.6-.1-2.2-.3s-1.2-.6-1.6-1c-.4-.5-.7-1-.9-1.7s-.3-1.5-.3-2.5v-7.9h-1.9c-.2 0-.4-.1-.5-.4s-.2-.7-.2-1.4c0-.3 0-.6 0-.8s.1-.4.1-.5c.1-.1.1-.2.2-.3s.2-.1.3-.1h1.8v-3.4c0-.1 0-.2.1-.3s.2-.2.3-.2c.2-.1.4-.1.7-.1h1 1.1c.3 0 .5.1.7.1.2.1.3.1.3.2.1.1.1.2.1.3v3.4h3.3c.1 0 .2 0 .3.1s.2.2.2.3c.1.1.1.3.1.5v.8c0 .6-.1 1.1-.2 1.4s-.3.4-.5.4h-3.4v7.3c0 .8.1 1.5.4 1.9s.7.6 1.4.6c.2 0 .4 0 .6-.1.2 0 .3-.1.5-.1.1-.1.3-.1.4-.1s.2-.1.3-.1.1 0 .2.1c.1 0 .1.1.1.2s.1.3.1.5c.6.1.6.4.6.7z"/><path d="m253.8 25.2c0 .5-.1.9-.4 1.2-.2.3-.6.4-1 .4h-9.4c0 .7.1 1.3.2 1.8.2.5.4 1 .7 1.4s.8.7 1.3.9 1.2.3 1.9.3c.8 0 1.4-.1 2-.2s1.1-.2 1.5-.4c.4-.1.8-.3 1-.4.3-.1.5-.2.7-.2.1 0 .2 0 .3.1.1 0 .1.1.2.2 0 .1.1.3.1.4v.7.7c0 .2 0 .3-.1.5 0 .1-.1.2-.1.3s-.1.2-.2.3-.3.2-.6.3-.8.3-1.3.4-1.1.2-1.8.3-1.4.1-2.1.1c-1.4 0-2.6-.2-3.6-.5s-1.9-.9-2.6-1.6-1.2-1.6-1.5-2.7-.5-2.3-.5-3.8c0-1.4.2-2.6.5-3.7.4-1.1.9-2 1.6-2.8s1.5-1.4 2.5-1.8 2.1-.6 3.3-.6c1.3 0 2.4.2 3.3.6s1.7.9 2.3 1.6 1 1.5 1.3 2.4.4 1.9.4 3v.8zm-4.2-1.2c0-1.2-.2-2.2-.7-2.9s-1.3-1-2.4-1c-.6 0-1 .1-1.4.3s-.7.5-1 .8c-.3.4-.5.8-.6 1.2-.1.5-.2 1-.3 1.5h6.4z"/><path d="m270.4 19.4v1c0 .3-.1.5-.1.6s-.1.3-.2.3c-.1.1-.2.1-.3.1s-.2 0-.3-.1c-.1 0-.2-.1-.4-.1-.1 0-.3-.1-.5-.1s-.4-.1-.6-.1-.5 0-.7.1-.5.3-.8.5-.5.5-.8.8-.6.8-.9 1.3v9.6c0 .1 0 .2-.1.3s-.2.2-.4.2c-.2.1-.4.1-.7.1s-.6 0-1.1 0c-.4 0-.8 0-1.1 0s-.5-.1-.7-.1c-.2-.1-.3-.1-.4-.2s-.1-.2-.1-.3v-15.3c0-.1 0-.2.1-.3s.2-.2.3-.2c.1-.1.3-.1.6-.1h.9.9c.2 0 .4.1.6.1.1.1.2.1.3.2s.1.2.1.3v1.9c.4-.6.8-1 1.1-1.4.4-.4.7-.7 1-.9s.6-.4 1-.5c.3-.1.6-.1 1-.1h.5c.2 0 .4 0 .5.1.2 0 .3.1.5.1.1.1.2.1.3.2s.1.1.1.2.1.2.1.3 0 .3.1.5c.2.3.2.6.2 1z"/><path d="m99.1 54.9c0 .3 0 .6-.1.9s-.2.5-.3.7-.3.4-.5.6-.4.3-.7.4-.5.2-.8.2c-.3.1-.6.1-1 .1h-2.6c-.1 0-.2 0-.3-.1s-.2-.2-.2-.4v-9c0-.2.1-.3.2-.4s.2-.1.3-.1h2.3c.6 0 1.1.1 1.5.2s.7.3 1 .5.5.5.6.8.2.7.2 1.1c0 .2 0 .5-.1.7s-.1.4-.3.6c-.1.2-.3.3-.4.5-.2.1-.4.3-.6.4.3.1.5.1.8.3.2.1.4.3.6.5s.3.5.4.8c-.1 0 0 .3 0 .7zm-2-4.6c0-.2 0-.5-.1-.7s-.2-.4-.3-.5-.3-.2-.6-.3c-.2-.1-.5-.1-.9-.1h-1.4v3.3h1.5c.3 0 .6 0 .8-.1s.4-.2.5-.4.2-.3.3-.5.2-.4.2-.7zm.6 4.6c0-.3 0-.6-.1-.8s-.2-.4-.4-.6-.4-.3-.7-.4-.6-.1-1-.1h-1.6v3.6h1.9c.3 0 .6 0 .8-.1s.4-.2.6-.3.3-.3.4-.5c0-.2.1-.5.1-.8z"/><path d="m107.4 56.5v.2.2.1s-.1.1-.1.2c-.1.1-.2.1-.3.2-.2.1-.3.2-.5.3s-.4.1-.6.2c-.2 0-.5.1-.7.1-.5 0-1-.1-1.3-.3-.4-.2-.7-.4-1-.7s-.5-.7-.6-1.2-.2-1-.2-1.6c0-.7.1-1.3.3-1.8s.4-.9.7-1.2.6-.6 1-.7c.4-.2.8-.2 1.3-.2.2 0 .4 0 .7.1.2 0 .4.1.6.2s.3.1.5.2c.1.1.2.2.3.2s.1.1.1.1 0 .1.1.1v.2.2c0 .2 0 .3-.1.4 0 .1-.1.1-.2.1s-.2 0-.3-.1-.2-.2-.4-.3-.3-.2-.6-.3c-.2-.1-.5-.1-.8-.1-.6 0-1.1.2-1.4.7s-.5 1.2-.5 2.1c0 .5 0 .8.1 1.2.1.3.2.6.4.9.2.2.4.4.6.5s.5.2.8.2.6 0 .8-.1.4-.2.6-.3.3-.2.4-.3.2-.1.3-.1h.1s0 .1.1.1v.2c-.2-.1-.2 0-.2.1z"/><path d="m116.4 53.8c0 .2-.1.3-.2.4s-.2.1-.3.1h-4.6c0 .4 0 .7.1 1s.2.6.4.8.4.4.7.5.6.2 1.1.2c.3 0 .6 0 .9-.1s.5-.1.7-.2.3-.1.5-.2c.1-.1.2-.1.3-.1h.1s.1 0 .1.1v.2.2.2.1.1s0 .1-.1.1c0 0-.1.1-.3.1-.1.1-.3.1-.5.2s-.5.1-.8.2c-.3 0-.6.1-.9.1-.6 0-1.1-.1-1.5-.2-.4-.2-.8-.4-1.1-.7s-.5-.7-.7-1.2-.2-1-.2-1.7c0-.6.1-1.1.2-1.6.2-.5.4-.9.7-1.2s.6-.6 1.1-.8c.4-.2.9-.3 1.4-.3.6 0 1 .1 1.4.3s.7.4 1 .7.4.7.5 1.1.2.8.2 1.3v.3zm-3.8-5.5c0 .3-.1.5-.2.6s-.3.2-.6.2-.5-.1-.6-.2-.1-.3-.1-.6.1-.5.2-.6.3-.2.6-.2.5.1.6.2.1.3.1.6zm2.5 5.1c0-.7-.1-1.2-.4-1.6s-.8-.6-1.4-.6c-.3 0-.6.1-.8.2s-.4.3-.6.5-.3.4-.4.7-.1.5-.1.8zm.3-5.1c0 .3-.1.5-.2.6s-.3.2-.6.2-.5-.1-.6-.2-.1-.3-.1-.6.1-.5.2-.6.3-.2.6-.2.5.1.6.2.1.3.1.6z"/><path d="m130.5 55.5c0 .4-.1.7-.2 1s-.3.5-.6.7-.6.3-1 .4-.9.2-1.4.2c-.2 0-.3 0-.5 0s-.3 0-.5 0-.3 0-.4 0-.3 0-.4 0c-.2 0-.4-.1-.5-.2s-.1-.3-.1-.5v-6c0-.2 0-.4.1-.5s.2-.2.4-.2h.4.5.5.5c.5 0 .9 0 1.3.1s.7.2.9.4.4.4.5.6.2.5.2.8c0 .4-.1.7-.3 1s-.5.5-.9.6c.5.1.9.3 1.2.6.2.2.3.6.3 1zm-1.5-3.2c0-.2 0-.3-.1-.5-.1-.1-.2-.3-.3-.3-.1-.1-.3-.2-.6-.2-.2 0-.5-.1-.8-.1-.2 0-.5 0-.7 0s-.4 0-.5 0v2.2h1.3c.5 0 .9-.1 1.2-.3s.5-.4.5-.8zm.2 3.3c0-.2 0-.4-.1-.5-.1-.2-.2-.3-.3-.4-.2-.1-.4-.2-.6-.2-.2-.1-.5-.1-.9-.1h-1.3v2.5h.3.3.3.3c.3 0 .6 0 .9-.1.2-.1.4-.1.6-.3.2-.1.3-.3.3-.4.1-.1.2-.3.2-.5z"/><path d="m144.5 57.6c0 .1-.1.1 0 0 0 .1-.1.1-.1.1s-.1 0-.2 0-.2 0-.3 0-.3 0-.4 0-.2 0-.2 0c-.1 0-.1 0-.1-.1 0 0 0-.1-.1-.1l-.8-1.8c-.1-.2-.2-.4-.3-.6s-.2-.3-.4-.4c-.1-.1-.3-.2-.5-.2s-.4-.1-.6-.1h-.5v3.2.1s-.1 0-.1.1c-.1 0-.1 0-.2 0s-.2 0-.3 0-.2 0-.3 0-.2 0-.2 0c-.1 0-.1 0-.1-.1v-.1-7.1s0 0 0-.1c0 0 .1 0 .1-.1h.2.3.3.2c.1 0 .1 0 .1.1v.1 2.9h.5c.2 0 .4 0 .5-.1.2 0 .3-.1.5-.2.1-.1.3-.2.4-.4s.2-.4.3-.6l.7-1.6s0-.1.1-.1c0 0 .1-.1.1-.1h.2.3.3.2s.1 0 .1.1v.1.1c0 .1 0 .1-.1.2l-.7 1.5c-.1.3-.2.5-.3.7s-.2.3-.4.4c-.1.1-.3.2-.4.3s-.3.1-.4.2c.2.1.3.1.5.2s.3.2.4.3.3.3.4.5.2.4.3.6l.8 1.8v.1.1c.1 0 .2.1.2.1z"/><path d="m152.6 57.6c0 .1 0 .1-.1.1 0 0-.1.1-.2.1s-.2 0-.3 0-.2 0-.3 0-.1 0-.2-.1c0 0-.1-.1-.1-.1v-.7c-.3.3-.6.6-1 .8s-.8.3-1.2.3-.7 0-1-.1-.6-.2-.8-.4-.4-.4-.5-.7-.2-.6-.2-.9c0-.4.1-.7.2-1 .2-.3.4-.5.7-.7s.7-.3 1.1-.4.9-.1 1.5-.1h1v-.5c0-.3 0-.5-.1-.7s-.1-.4-.3-.5c-.1-.1-.3-.2-.5-.3s-.5-.1-.7-.1c-.3 0-.6 0-.9.1s-.5.2-.7.2c-.2.1-.3.2-.5.2-.1.1-.2.1-.3.1h-.1s-.1-.1-.1-.1 0-.1-.1-.2c0-.1 0-.1 0-.2s0-.2 0-.3.1-.1.1-.2c.1-.1.2-.1.4-.2s.4-.2.6-.2c.2-.1.5-.1.7-.2.3 0 .5-.1.8-.1.5 0 .9.1 1.3.2s.6.3.9.5c.2.2.4.5.5.8s.1.7.1 1.1v4.5zm-1.3-3.2h-1.1c-.4 0-.7 0-.9.1-.3.1-.5.1-.6.3-.2.1-.3.3-.4.4-.1.2-.1.4-.1.6 0 .4.1.7.3.9s.6.3 1 .3c.3 0 .7-.1.9-.3.3-.2.6-.4.9-.8z"/><path d="m161.3 56.5v.2.2.1s-.1.1-.1.2c-.1.1-.2.1-.3.2-.2.1-.3.2-.5.3s-.4.1-.6.2c-.2 0-.5.1-.7.1-.5 0-1-.1-1.3-.3-.4-.2-.7-.4-1-.7s-.5-.7-.6-1.2-.2-1-.2-1.6c0-.7.1-1.3.3-1.8s.4-.9.7-1.2.6-.6 1-.7c.4-.2.8-.2 1.3-.2.2 0 .4 0 .7.1.2 0 .4.1.6.2s.3.1.5.2c.1.1.2.2.3.2s.1.1.1.1 0 .1.1.1v.2.2c0 .2 0 .3-.1.4 0 .1-.1.1-.2.1s-.2 0-.3-.1-.2-.2-.4-.3-.3-.2-.6-.3c-.2-.1-.5-.1-.8-.1-.6 0-1.1.2-1.4.7s-.5 1.2-.5 2.1c0 .5 0 .8.1 1.2.1.3.2.6.4.9s.4.4.6.5.5.2.8.2.6 0 .8-.1.4-.2.6-.3.3-.2.4-.3.2-.1.3-.1h.1s0 .1.1.1v.2c-.2-.1-.2 0-.2.1z"/><path d="m169.4 56.5v.2.2.1s-.1.1-.1.2c-.1.1-.2.1-.3.2-.2.1-.3.2-.5.3s-.4.1-.6.2c-.2 0-.5.1-.7.1-.5 0-1-.1-1.3-.3-.4-.2-.7-.4-1-.7s-.5-.7-.6-1.2-.2-1-.2-1.6c0-.7.1-1.3.3-1.8s.4-.9.7-1.2.6-.6 1-.7c.4-.2.8-.2 1.3-.2.2 0 .4 0 .7.1.2 0 .4.1.6.2s.3.1.5.2c.1.1.2.2.3.2.1.1.1.1.1.1s0 .1.1.1v.2.2c0 .2 0 .3-.1.4 0 .1-.1.1-.2.1s-.2 0-.3-.1-.2-.2-.4-.3-.3-.2-.6-.3c-.2-.1-.5-.1-.8-.1-.6 0-1.1.2-1.4.7s-.5 1.2-.5 2.1c0 .5 0 .8.1 1.2.1.3.2.6.4.9.2.2.4.4.6.5s.5.2.8.2.6 0 .8-.1.4-.2.6-.3.3-.2.4-.3.2-.1.3-.1h.1s0 .1.1.1v.2c-.2-.1-.2 0-.2.1z"/><path d="m175.6 57.8-.9 2.6c0 .1-.1.1-.2.2-.1 0-.3.1-.6.1-.1 0-.2 0-.3 0s-.1 0-.2-.1c0 0-.1-.1-.1-.1 0-.1 0-.1 0-.2l1-2.4s-.1-.1-.1-.1-.1-.1-.1-.1l-2.5-6.7c0-.1-.1-.2-.1-.3s0-.1.1-.1c0 0 .1-.1.2-.1h.4.4.2c.1 0 .1.1.1.1s0 .1.1.2l2 5.6 1.9-5.7c0-.1.1-.2.1-.2s.1 0 .2-.1h.4.4c.1 0 .2 0 .2.1 0 0 .1.1.1.1v.2z"/><path d="m183.6 56.9v.4c0 .1-.1.2-.1.3-.1.1-.1.1-.3.1-.1 0-.2 0-.4 0s-.3 0-.4 0-.2-.1-.3-.1c-.1-.1-.1-.2-.1-.3s0-.3 0-.4c0-.2 0-.3 0-.4s.1-.2.1-.3c.1-.1.1-.1.3-.1h.4s.3 0 .4 0 .2.1.3.1c.1.1.1.2.1.3-.1.1 0 .3 0 .4zm-.3-2.1v.1s-.1.1-.1.1-.1 0-.2 0-.2 0-.3 0-.2 0-.3 0-.1 0-.2 0c0 0-.1 0-.1-.1v-.1l-.1-7.4c0-.1 0-.1 0-.2 0 0 .1-.1.1-.1.1 0 .1-.1.2-.1h.4.3c.1 0 .2 0 .2.1.1 0 .1.1.1.1v.2z"/><path d="m75.8 39.8c0 .6-.5 1.4-1.1 1.7l-34.1 15.3c-.6.3-1.6.3-2.1 0l-34.2-15.3c-.6-.3-1.1-1-1.1-1.7v-30.2c0-.6.5-1 1.1-.7l34.3 16.1c.6.3 1.5.3 2.1 0l34.1-16c.6-.3 1.1 0 1.1.7v30.1zm-67.3-32.4v-2c0-.6.5-1 1.1-.7l28.9 13.5c.6.3 1.5.3 2.1 0l28-13.5c.6-.3 1.1 0 1 .7v2.5l-28.9 13.6c-.6.3-1.5.3-2.1 0l-30.1-14.1c-.1 0 0 0 0 0m69.5-3.5-5.4 2.6v-5.7c0-.6-.5-.9-1.1-.7l-30.9 14.9c-.6.3-1.5.3-2.1 0l-31.8-14.9c-.6-.3-1.1 0-1.1.7v5.3l-4.5-2.2c-.6-.2-1.1.1-1.1.7v37.3c0 .6.5 1.4 1.1 1.7l37.4 16.8c.6.3 1.6.3 2.1 0l37.4-16.8c.6-.3 1.1-1 1.1-1.7v-37.3c-.1-.6-.6-.9-1.1-.7"/></g></svg>