<?xml version="1.0" encoding="UTF-8"?>
<svg id="Layer_1" data-name="Layer 1" xmlns="http://www.w3.org/2000/svg" version="1.1" viewBox="0 0 120 120">
  <defs>
    <style>
      .cls-1 {
        fill: #000;
        stroke-width: 0px;
      }
    </style>
  </defs>
  <path class="cls-1" d="M0,58.1581233C0,36.0091395,19.2991125,1.9107062,58.1473298,1.9107062,13.0494006,13.5601711,11.1494873,55.258255,15.5492857,67.5076922c8.8495947,24.5988682,29.0986643,35.2983812,53.0975616,32.7484953,25.5988223-2.7498736,36.1483406-24.1988851,36.1483406-40.7481277,0-24.9988514-20.2490696-45.2979179-45.2979179-45.2979179s-28.4486936,7.3496627-36.6483176,18.6991416C43.8979845-2.7390801,89.4958879,1.61072,109.1449866,26.7095675c11.849454,15.0993085,10.7995068,30.3486078,10.8495,34.4984149v.6999686c0,29.3986507-23.7989095,53.547535-54.1975067,56.0474202-2.1499027.2499885-12.5994196.1499946-15.4492909-.2999893h-.0999939c-10.8495038-1.4499303-27.4487396-7.3996615-38.8982142-22.4989662C3.3998439,84.606905,0,72.4574617,0,58.1581233Z"/>
  <path class="cls-1" d="M87.295992,85.9068483c-10.6995053,11.5994655-28.7486791,15.3492932-42.9480274,6.4997014,25.0988491,4.699781,35.9983498-10.0995344,39.7481775-18.49915,7.5496562-16.899225,2.6498798-31.7485412-10.4495168-41.3980994-13.9993568-10.299526-29.5986385-3.8998204-37.548274,4.7497818-12.0494456,13.0493996-11.8494559,32.8984899.549974,44.3479608,7.4496585,6.8996845,17.5991898,9.1495811,27.1487541,7.0496791-2.9998622.8499594-6.0497213,1.3499364-9.0995804,1.5499318-19.3491094,1.0499548-35.1483865-13.8493621-35.5483659-33.1984754,0-1.2499426,0-2.5498821.0999958-3.8498216.4499801-5.7997328,2.0999039-11.4994716,5.0497691-16.6492327,1.3999353-2.4998851,3.1498549-4.8997745,5.0997661-7.0996742.0999958-.1499927.2499885-.2499885.3499843-.3999812,14.1993483-15.3492951,37.6482717-17.0492159,53.8975251-4.4497963,1.1999418.8499613,6.2497128,5.6997389,7.5496562,7.2496669h0c4.699781,5.6997389,9.9995405,16.449245,8.3996156,29.5486415-1.1499487,9.1495811-5.3997534,17.0992128-12.2994379,24.4988743l-.0000153.0499931Z"/>
  <path class="cls-1" d="M30.5485956,61.0079908c-1.1999456-10.2495291,4.5497902-20.7990436,14.9493139-24.0988912-12.9494058,10.4995176-10.2495291,22.1489838-7.64965,27.5987304,5.1997618,10.8995007,14.6493284,14.7493223,24.9988514,12.2994379,11.0494954-2.599879,14.4993338-13.0493996,13.5493805-20.6490527-1.3499364-11.5494686-11.349477-19.8490865-22.2989746-18.5491469-6.5496983.7499655-11.9994487,4.8997764-14.9493139,10.4995176.7999625-1.8499135,1.8999142-3.5498361,3.099856-5.1497649,7.64965-10.0995382,21.7490007-11.6494644,31.5485535-3.5998331.6499717.549974,1.2499426,1.0999479,1.8999142,1.6999227,2.6998729,2.6498798,4.8497756,5.8997304,6.149719,9.5495605.6499717,1.7499196,1.0999479,3.5998331,1.3499364,5.5497442v.3499824c1.599925,13.5493805-7.4996554,25.8988115-20.599052,28.6486852-.8999602.2499885-5.4997473.6999648-6.7496899.6999648h0c-4.8497756-.0999939-12.3994318-1.9999081-18.2491615-8.3496148-4.0998101-4.4497925-6.2497128-9.8995467-7.0496753-16.4992419h-.0000076Z"/>
  <path class="cls-1" d="M42.9980243,51.6084212c1.9499112-4.6497879,7.2996638-7.149673,12.6494203-7.149673s10.0995344,2.8998683,12.6494203,7.19967c1.3499364,2.1998997,2.099902,4.8497756,2.099902,7.5996493,0,4.8997726-2.3998913,9.2495788-6.0997182,11.899451,1.1999418-1.9999081,1.9499074-4.2498047,2.099902-6.649696-2.6498798,3.8498216-7.149673,6.2497128-12.1494433,6.3997075-7.7996409.2499885-15.899271-8.0496294-11.2494831-19.2991087Z"/>
</svg>