<?xml version="1.0" standalone="no"?>
  <!DOCTYPE svg PUBLIC "-//W3C//DTD SVG 1.1//EN" "http://www.w3.org/Graphics/SVG/1.1/DTD/svg11.dtd" >
  <svg>
  <metadata>
  Created by font-carrier
  </metadata>
  <defs>
  <font id="BazaART" horiz-adv-x="1610" vert-adv-y="1610" >
    <font-face
      
      font-family="BazaART"
      
      font-weight="400"
      
      font-stretch="normal"
      
      units-per-em="1000"
      
      ascent="1103"
      
      descent="-373"
      
    />
      <missing-glyph />

      

      
      <glyph glyph-name="uni41" unicode="&#x41;" d="M316 720L10 0L20 0L68 114L489 114L538 0L622 0ZM279 610L485 124L72 124Z"  horiz-adv-x="632" vert-adv-y="1000"  />

      
      <glyph glyph-name="unic6" unicode="&#xc6;" d="M775 690L775 700L307 700L10 0L20 0L68 114L489 114L538 0L775 0L775 10L618 10L475 347L775 347L775 357L470 357L329 690ZM279 610L485 124L72 124Z"  horiz-adv-x="805" vert-adv-y="1000"  />

      
      <glyph glyph-name="unic1" unicode="&#xc1;" d="M316 720L10 0L20 0L68 114L489 114L538 0L622 0ZM279 610L485 124L72 124ZM380 831C391 838 396 845 396 852C396 863 383 873 363 873C341 873 330 865 320 853L236 750L246 750Z"  horiz-adv-x="632" vert-adv-y="1000"  />

      
      <glyph glyph-name="unic2" unicode="&#xc2;" d="M316 720L10 0L20 0L68 114L489 114L538 0L622 0ZM279 610L485 124L72 124ZM316 830L433 750L443 750L359 853C350 864 335 873 316 873C297 873 282 864 273 853L189 750L199 750Z"  horiz-adv-x="632" vert-adv-y="1000"  />

      
      <glyph glyph-name="unic4" unicode="&#xc4;" d="M316 720L10 0L20 0L68 114L489 114L538 0L622 0ZM279 610L485 124L72 124ZM376 786C376 765 391 750 412 750C433 750 450 765 450 786C450 807 433 823 412 823C391 823 376 807 376 786ZM181 786C181 765 196 750 217 750C238 750 255 765 255 786C255 807 238 823 217 823C196 823 181 807 181 786Z"  horiz-adv-x="632" vert-adv-y="1000"  />

      
      <glyph glyph-name="unic0" unicode="&#xc0;" d="M316 720L10 0L20 0L68 114L489 114L538 0L622 0ZM279 610L485 124L72 124ZM386 750L396 750L312 853C302 865 291 873 269 873C249 873 236 863 236 852C236 845 241 838 252 831Z"  horiz-adv-x="632" vert-adv-y="1000"  />

      
      <glyph glyph-name="uni0100" unicode="&#x0100;" d="M316 720L10 0L20 0L68 114L489 114L538 0L622 0ZM279 610L485 124L72 124ZM421 750L421 770L211 770L211 750Z"  horiz-adv-x="632" vert-adv-y="1000"  />

      
      <glyph glyph-name="uni0104" unicode="&#x0104;" d="M538 0C505-12 467-41 467-76C467-98 484-113 514-113C542-113 571-101 617-57L612-53C580-82 556-91 540-91C520-91 506-83 506-67C506-44 510-20 548 0L622 0L316 720L10 0L20 0L68 114L489 114ZM279 610L485 124L72 124Z"  horiz-adv-x="632" vert-adv-y="1000"  />

      
      <glyph glyph-name="unic5" unicode="&#xc5;" d="M257 759C257 729 278 704 307 700L10 0L20 0L68 114L489 114L538 0L622 0L324 700C354 704 376 729 376 759C376 793 350 819 316 819C283 819 257 793 257 759ZM279 610L485 124L72 124ZM277 759C277 781 294 799 316 799C338 799 356 781 356 759C356 737 338 720 316 720C294 720 277 737 277 759Z"  horiz-adv-x="632" vert-adv-y="1000"  />

      
      <glyph glyph-name="unic3" unicode="&#xc3;" d="M316 720L10 0L20 0L68 114L489 114L538 0L622 0ZM279 610L485 124L72 124ZM374 782C336 782 303 807 264 807C242 807 211 793 200 755L206 750C221 771 239 775 257 775C295 775 328 750 367 750C389 750 420 764 431 802L425 807C410 786 392 782 374 782Z"  horiz-adv-x="632" vert-adv-y="1000"  />

      
      <glyph glyph-name="uni42" unicode="&#x42;" d="M294 586C294 655 236 700 129 700L40 700L40 0L140 0C310 0 408 114 408 235C408 344 329 460 189 480C257 496 294 532 294 586ZM325 235C325 117 256 10 140 10L124 10L124 473L140 473C256 473 325 355 325 235ZM129 690C193 690 236 653 236 586C236 520 193 483 129 483L124 483L124 690Z"  horiz-adv-x="428" vert-adv-y="1000"  />

      
      <glyph glyph-name="uni43" unicode="&#x43;" d="M118 350C118 545 232 703 392 703C461 703 530 683 585 645L591 655C537 691 467 713 392 713C182 713 30 550 30 350C30 150 182-13 392-13C467-13 537 9 591 45L585 55C530 17 461-3 392-3C232-3 118 155 118 350Z"  horiz-adv-x="611" vert-adv-y="1000"  />

      
      <glyph glyph-name="uni0106" unicode="&#x0106;" d="M118 350C118 545 232 703 392 703C461 703 530 683 585 645L591 655C537 691 467 713 392 713C182 713 30 550 30 350C30 150 182-13 392-13C467-13 537 9 591 45L585 55C530 17 461-3 392-3C232-3 118 155 118 350ZM429 831C440 838 445 845 445 852C445 863 432 873 412 873C390 873 379 865 369 853L285 750L295 750Z"  horiz-adv-x="611" vert-adv-y="1000"  />

      
      <glyph glyph-name="uni010C" unicode="&#x010C;" d="M118 350C118 545 232 703 392 703C461 703 530 683 585 645L591 655C537 691 467 713 392 713C182 713 30 550 30 350C30 150 182-13 392-13C467-13 537 9 591 45L585 55C530 17 461-3 392-3C232-3 118 155 118 350ZM258 873L248 873L332 770C341 759 356 750 375 750C394 750 409 759 418 770L502 873L492 873L375 793Z"  horiz-adv-x="611" vert-adv-y="1000"  />

      
      <glyph glyph-name="unic7" unicode="&#xc7;" d="M118 350C118 545 232 703 392 703C461 703 530 683 585 645L591 655C537 691 467 713 392 713C182 713 30 550 30 350C30 160 167 3 361-12L337-46C366-49 390-65 390-94C390-113 372-126 355-126C336-126 318-117 302-100L296-106C312-129 340-141 363-141C394-141 434-130 434-95C434-72 408-39 355-39L373-12C379-13 385-13 392-13C467-13 537 9 591 45L585 55C530 17 461-3 392-3C232-3 118 155 118 350Z"  horiz-adv-x="611" vert-adv-y="1000"  />

      
      <glyph glyph-name="uni44" unicode="&#x44;" d="M197 0C420 0 557 152 557 350C557 548 420 700 197 700L40 700L40 0ZM197 690C347 690 474 546 474 350C474 154 347 10 197 10L125 10L125 690Z"  horiz-adv-x="587" vert-adv-y="1000"  />

      
      <glyph glyph-name="uni010E" unicode="&#x010E;" d="M197 0C420 0 557 152 557 350C557 548 420 700 197 700L40 700L40 0ZM197 690C347 690 474 546 474 350C474 154 347 10 197 10L125 10L125 690ZM101 873L91 873L175 770C184 759 199 750 218 750C237 750 252 759 261 770L345 873L335 873L218 793Z"  horiz-adv-x="597" vert-adv-y="1000"  />

      
      <glyph glyph-name="uni45" unicode="&#x45;" d="M317 690L317 700L40 700L40 0L317 0L317 10L124 10L124 347L317 347L317 357L124 357L124 690Z"  horiz-adv-x="347" vert-adv-y="1000"  />

      
      <glyph glyph-name="unic9" unicode="&#xc9;" d="M317 690L317 700L40 700L40 0L317 0L317 10L124 10L124 347L317 347L317 357L124 357L124 690ZM267 831C278 838 283 845 283 852C283 863 270 873 250 873C228 873 217 865 207 853L123 750L133 750Z"  horiz-adv-x="347" vert-adv-y="1000"  />

      
      <glyph glyph-name="uni011A" unicode="&#x011A;" d="M317 690L317 700L40 700L40 0L317 0L317 10L124 10L124 347L317 347L317 357L124 357L124 690ZM56 873L46 873L130 770C139 759 154 750 173 750C192 750 207 759 216 770L300 873L290 873L173 793Z"  horiz-adv-x="347" vert-adv-y="1000"  />

      
      <glyph glyph-name="unica" unicode="&#xca;" d="M317 690L317 700L40 700L40 0L317 0L317 10L124 10L124 347L317 347L317 357L124 357L124 690ZM173 830L290 750L300 750L216 853C207 864 192 873 173 873C154 873 139 864 130 853L46 750L56 750Z"  horiz-adv-x="347" vert-adv-y="1000"  />

      
      <glyph glyph-name="unicb" unicode="&#xcb;" d="M317 690L317 700L40 700L40 0L317 0L317 10L124 10L124 347L317 347L317 357L124 357L124 690ZM234 786C234 765 249 750 270 750C291 750 308 765 308 786C308 807 291 823 270 823C249 823 234 807 234 786ZM39 786C39 765 54 750 75 750C96 750 113 765 113 786C113 807 96 823 75 823C54 823 39 807 39 786Z"  horiz-adv-x="347" vert-adv-y="1000"  />

      
      <glyph glyph-name="uni0116" unicode="&#x0116;" d="M317 690L317 700L40 700L40 0L317 0L317 10L124 10L124 347L317 347L317 357L124 357L124 690ZM140 783C140 764 154 750 173 750C192 750 207 764 207 783C207 802 192 817 173 817C154 817 140 802 140 783Z"  horiz-adv-x="347" vert-adv-y="1000"  />

      
      <glyph glyph-name="unic8" unicode="&#xc8;" d="M317 690L317 700L40 700L40 0L317 0L317 10L124 10L124 347L317 347L317 357L124 357L124 690ZM243 750L253 750L169 853C159 865 148 873 126 873C106 873 93 863 93 852C93 845 98 838 109 831Z"  horiz-adv-x="347" vert-adv-y="1000"  />

      
      <glyph glyph-name="uni0112" unicode="&#x0112;" d="M317 690L317 700L40 700L40 0L317 0L317 10L124 10L124 347L317 347L317 357L124 357L124 690ZM278 750L278 770L68 770L68 750Z"  horiz-adv-x="347" vert-adv-y="1000"  />

      
      <glyph glyph-name="uni0118" unicode="&#x0118;" d="M238 0C205-12 167-41 167-76C167-98 184-113 214-113C242-113 271-101 317-57L312-53C280-82 256-91 240-91C220-91 206-83 206-67C206-44 210-20 248 0L317 0L317 10L124 10L124 347L317 347L317 357L124 357L124 690L317 690L317 700L40 700L40 0Z"  horiz-adv-x="347" vert-adv-y="1000"  />

      
      <glyph glyph-name="unid0" unicode="&#xd0;" d="M197 0C420 0 557 152 557 350C557 548 420 700 197 700L40 700L40 359L0 359L0 349L40 349L40 0ZM310 349L310 359L125 359L125 690L197 690C347 690 474 546 474 350C474 154 347 10 197 10L125 10L125 349Z"  horiz-adv-x="597" vert-adv-y="1000"  />

      
      <glyph glyph-name="uni20AC" unicode="&#x20AC;" d="M0 410L0 400L83 400L80 360L0 360L0 350L80 350C80 150 232-13 442-13C517-13 587 9 641 45L635 55C580 17 511-3 442-3C282-3 168 155 168 350L494 350L500 360L168 360C168 373 169 387 170 400L514 400L520 410L172 410C192 576 298 703 442 703C511 703 580 683 635 645L641 655C587 691 517 713 442 713C253 713 111 581 84 410Z"  horiz-adv-x="661" vert-adv-y="1000"  />

      
      <glyph glyph-name="uni46" unicode="&#x46;" d="M317 690L317 700L40 700L40 0L124 0L124 347L317 347L317 357L124 357L124 690Z"  horiz-adv-x="327" vert-adv-y="1000"  />

      
      <glyph glyph-name="uni47" unicode="&#x47;" d="M119 350C119 545 233 703 393 703C462 703 531 683 586 645L592 655C538 691 468 713 393 713C183 713 31 550 31 350C31 150 183-13 393-13C468-13 555 8 632 69L632 341L548 341L548 32C501 9 447-3 393-3C233-3 119 155 119 350Z"  horiz-adv-x="662" vert-adv-y="1000"  />

      
      <glyph glyph-name="uni48" unicode="&#x48;" d="M516 700L516 359L124 359L124 700L40 700L40 0L124 0L124 349L516 349L516 0L600 0L600 700Z"  horiz-adv-x="640" vert-adv-y="1000"  />

      
      <glyph glyph-name="uni49" unicode="&#x49;" d="M124 700L40 700L40 0L124 0Z"  horiz-adv-x="164" vert-adv-y="1000"  />

      
      <glyph glyph-name="unicd" unicode="&#xcd;" d="M124 700L40 700L40 0L124 0ZM146 831C157 838 162 845 162 852C162 863 149 873 129 873C107 873 96 865 86 853L2 750L12 750Z"  horiz-adv-x="164" vert-adv-y="1000"  />

      
      <glyph glyph-name="unice" unicode="&#xce;" d="M82 830L179 750L189 750L123 853C115 865 101 873 82 873C63 873 49 865 41 853L-25 750L-15 750ZM124 700L40 700L40 0L124 0Z"  horiz-adv-x="164" vert-adv-y="1000"  />

      
      <glyph glyph-name="unicf" unicode="&#xcf;" d="M124 630L40 630L40 0L124 0ZM128 766C128 745 143 730 164 730C185 730 202 745 202 766C202 787 185 803 164 803C143 803 128 787 128 766ZM-36 766C-36 745-21 730 0 730C21 730 38 745 38 766C38 787 21 803 0 803C-21 803-36 787-36 766Z"  horiz-adv-x="164" vert-adv-y="1000"  />

      
      <glyph glyph-name="unicc" unicode="&#xcc;" d="M124 700L40 700L40 0L124 0ZM152 750L162 750L78 853C68 865 57 873 35 873C15 873 2 863 2 852C2 845 7 838 18 831Z"  horiz-adv-x="164" vert-adv-y="1000"  />

      
      <glyph glyph-name="uni012A" unicode="&#x012A;" d="M124 700L40 700L40 0L124 0ZM164 750L164 770L0 770L0 750Z"  horiz-adv-x="164" vert-adv-y="1000"  />

      
      <glyph glyph-name="uni012E" unicode="&#x012E;" d="M40 0C7-12-31-41-31-76C-31-98-14-113 16-113C44-113 73-101 119-57L114-53C82-82 58-91 42-91C22-91 8-83 8-67C8-44 12-20 50 0L124 0L124 700L40 700Z"  horiz-adv-x="164" vert-adv-y="1000"  />

      
      <glyph glyph-name="uni4a" unicode="&#x4a;" d="M132 3C78 3 44 25 10 76L0 69C32 20 71-13 152-13C286-13 350 90 350 199L350 700L266 700L266 199C266 54 203 3 132 3Z"  horiz-adv-x="390" vert-adv-y="1000"  />

      
      <glyph glyph-name="uni4b" unicode="&#x4b;" d="M40 700L40 0L124 0L124 700ZM455 700L441 700L129 225L355 0L465 0L181 283Z"  horiz-adv-x="475" vert-adv-y="1000"  />

      
      <glyph glyph-name="uni4c" unicode="&#x4c;" d="M124 700L40 700L40 0L317 0L317 10L124 10Z"  horiz-adv-x="327" vert-adv-y="1000"  />

      
      <glyph glyph-name="uni0139" unicode="&#x0139;" d="M124 700L40 700L40 0L317 0L317 10L124 10ZM227 831C238 838 243 845 243 852C243 863 230 873 210 873C188 873 177 865 167 853L83 750L93 750Z"  horiz-adv-x="347" vert-adv-y="1000"  />

      
      <glyph glyph-name="uni013D" unicode="&#x013D;" d="M124 700L40 700L40 0L317 0L317 10L124 10ZM187 651C187 619 218 596 243 579C234 545 215 516 191 482L200 475C234 517 279 572 279 651C279 678 259 700 232 700C206 700 187 678 187 651Z"  horiz-adv-x="347" vert-adv-y="1000"  />

      
      <glyph glyph-name="uni0141" unicode="&#x0141;" d="M217 447L217 461L124 395L124 700L40 700L40 335L-30 286L-30 272L40 321L40 0L317 0L317 10L124 10L124 381Z"  horiz-adv-x="347" vert-adv-y="1000"  />

      
      <glyph glyph-name="uni4d" unicode="&#x4d;" d="M526 700L320 118L114 700L30 700L30 0L40 0L40 671L278 0L288 0L526 671L526 0L610 0L610 700Z"  horiz-adv-x="650" vert-adv-y="1000"  />

      
      <glyph glyph-name="uni4e" unicode="&#x4e;" d="M483 700L483 138L40 700L30 700L30 0L40 0L40 562L483 0L493 0L493 700Z"  horiz-adv-x="523" vert-adv-y="1000"  />

      
      <glyph glyph-name="uni0143" unicode="&#x0143;" d="M483 700L483 138L40 700L30 700L30 0L40 0L40 562L483 0L493 0L493 700ZM355 831C366 838 371 845 371 852C371 863 358 873 338 873C316 873 305 865 295 853L211 750L221 750Z"  horiz-adv-x="523" vert-adv-y="1000"  />

      
      <glyph glyph-name="uni0147" unicode="&#x0147;" d="M483 700L483 138L40 700L30 700L30 0L40 0L40 562L483 0L493 0L493 700ZM144 873L134 873L218 770C227 759 242 750 261 750C280 750 295 759 304 770L388 873L378 873L261 793Z"  horiz-adv-x="523" vert-adv-y="1000"  />

      
      <glyph glyph-name="unid1" unicode="&#xd1;" d="M483 700L483 138L40 700L30 700L30 0L40 0L40 562L483 0L493 0L493 700ZM320 782C282 782 249 807 210 807C188 807 157 793 146 755L152 750C167 771 185 775 203 775C241 775 274 750 313 750C335 750 366 764 377 802L371 807C356 786 338 782 320 782Z"  horiz-adv-x="523" vert-adv-y="1000"  />

      
      <glyph glyph-name="uni4f" unicode="&#x4f;" d="M393 703C554 703 668 545 668 350C668 155 554-3 393-3C232-3 118 155 118 350C118 545 232 703 393 703ZM756 350C756 550 603 713 393 713C183 713 30 550 30 350C30 149 183-13 393-13C603-13 756 149 756 350Z"  horiz-adv-x="786" vert-adv-y="1000"  />

      
      <glyph glyph-name="uni0152" unicode="&#x0152;" d="M950 690L950 700L673 700L673 585C608 663 509 713 393 713C183 713 30 550 30 350C30 149 183-13 393-13C509-13 608 36 673 115L673 0L950 0L950 10L757 10L757 347L950 347L950 357L757 357L757 690ZM393 703C554 703 668 545 668 350C668 155 554-3 393-3C232-3 118 155 118 350C118 545 232 703 393 703Z"  horiz-adv-x="980" vert-adv-y="1000"  />

      
      <glyph glyph-name="unid3" unicode="&#xd3;" d="M393 703C232 703 118 545 118 350C118 155 232-3 393-3C554-3 668 155 668 350C668 545 554 703 393 703ZM756 350C756 149 603-13 393-13C183-13 30 149 30 350C30 550 183 713 393 713C603 713 756 550 756 350ZM457 831C468 838 473 845 473 852C473 863 460 873 440 873C418 873 407 865 397 853L313 750L323 750Z"  horiz-adv-x="786" vert-adv-y="1000"  />

      
      <glyph glyph-name="unid4" unicode="&#xd4;" d="M393 703C232 703 118 545 118 350C118 155 232-3 393-3C554-3 668 155 668 350C668 545 554 703 393 703ZM756 350C756 149 603-13 393-13C183-13 30 149 30 350C30 550 183 713 393 713C603 713 756 550 756 350ZM393 830L510 750L520 750L436 853C427 864 412 873 393 873C374 873 359 864 350 853L266 750L276 750Z"  horiz-adv-x="786" vert-adv-y="1000"  />

      
      <glyph glyph-name="unid6" unicode="&#xd6;" d="M393 703C232 703 118 545 118 350C118 155 232-3 393-3C554-3 668 155 668 350C668 545 554 703 393 703ZM756 350C756 149 603-13 393-13C183-13 30 149 30 350C30 550 183 713 393 713C603 713 756 550 756 350ZM453 786C453 765 468 750 489 750C510 750 527 765 527 786C527 807 510 823 489 823C468 823 453 807 453 786ZM258 786C258 765 273 750 294 750C315 750 332 765 332 786C332 807 315 823 294 823C273 823 258 807 258 786Z"  horiz-adv-x="786" vert-adv-y="1000"  />

      
      <glyph glyph-name="unid2" unicode="&#xd2;" d="M393 703C232 703 118 545 118 350C118 155 232-3 393-3C554-3 668 155 668 350C668 545 554 703 393 703ZM756 350C756 149 603-13 393-13C183-13 30 149 30 350C30 550 183 713 393 713C603 713 756 550 756 350ZM463 750L473 750L389 853C379 865 368 873 346 873C326 873 313 863 313 852C313 845 318 838 329 831Z"  horiz-adv-x="786" vert-adv-y="1000"  />

      
      <glyph glyph-name="uni0150" unicode="&#x0150;" d="M393 703C232 703 118 545 118 350C118 155 232-3 393-3C554-3 668 155 668 350C668 545 554 703 393 703ZM756 350C756 149 603-13 393-13C183-13 30 149 30 350C30 550 183 713 393 713C603 713 756 550 756 350ZM447 831C458 838 463 845 463 852C463 863 450 873 430 873C408 873 397 865 387 853L303 750L313 750ZM567 831C578 838 583 845 583 852C583 863 570 873 550 873C528 873 517 865 507 853L423 750L433 750Z"  horiz-adv-x="786" vert-adv-y="1000"  />

      
      <glyph glyph-name="uni014C" unicode="&#x014C;" d="M393 703C232 703 118 545 118 350C118 155 232-3 393-3C554-3 668 155 668 350C668 545 554 703 393 703ZM756 350C756 149 603-13 393-13C183-13 30 149 30 350C30 550 183 713 393 713C603 713 756 550 756 350ZM498 750L498 770L288 770L288 750Z"  horiz-adv-x="786" vert-adv-y="1000"  />

      
      <glyph glyph-name="unid8" unicode="&#xd8;" d="M726 700L711 700L637 621C574 678 489 713 393 713C183 713 30 550 30 350C30 246 71 152 140 86L60 0L75 0L148 78C211 21 296-13 393-13C603-13 756 149 756 350C756 454 714 547 645 614ZM393 703C480 703 553 656 602 583L177 126C139 187 118 265 118 350C118 545 232 703 393 703ZM668 350C668 155 554-3 393-3C306-3 232 43 183 116L608 574C646 513 668 435 668 350Z"  horiz-adv-x="786" vert-adv-y="1000"  />

      
      <glyph glyph-name="unid5" unicode="&#xd5;" d="M393 703C232 703 118 545 118 350C118 155 232-3 393-3C554-3 668 155 668 350C668 545 554 703 393 703ZM756 350C756 149 603-13 393-13C183-13 30 149 30 350C30 550 183 713 393 713C603 713 756 550 756 350ZM451 782C413 782 380 807 341 807C319 807 288 793 277 755L283 750C298 771 316 775 334 775C372 775 405 750 444 750C466 750 497 764 508 802L502 807C487 786 469 782 451 782Z"  horiz-adv-x="786" vert-adv-y="1000"  />

      
      <glyph glyph-name="uni50" unicode="&#x50;" d="M124 183L124 690L139 690C256 690 324 584 324 436C324 287 256 183 139 183ZM40 700L40 0L124 0L124 173L139 173C310 173 408 286 408 436C408 587 310 700 139 700Z"  horiz-adv-x="418" vert-adv-y="1000"  />

      
      <glyph glyph-name="uni51" unicode="&#x51;" d="M541-120C532-74 519-33 503 3C654 48 756 186 756 350C756 550 603 713 393 713C183 713 30 550 30 350C30 149 183-13 393-13C406-13 419-12 431-11C444-43 455-80 464-120ZM393 703C554 703 668 545 668 350C668 199 600 70 495 20C404 205 230 256 127 257C121 286 118 318 118 350C118 545 232 703 393 703ZM393-3C261-3 161 102 129 247C213 245 346 197 427 0C416-2 404-3 393-3Z"  horiz-adv-x="809" vert-adv-y="1000"  />

      
      <glyph glyph-name="uni52" unicode="&#x52;" d="M471 82C471 45 446 25 415 25C382 25 330 69 307 93C276 125 236 155 174 175C323 189 408 297 408 436C408 587 310 700 139 700L40 700L40 0L124 0L124 173C234 173 245-12 381-12C431-12 476 19 476 82ZM124 183L124 690L139 690C256 690 324 584 324 436C324 287 256 183 139 183Z"  horiz-adv-x="486" vert-adv-y="1000"  />

      
      <glyph glyph-name="uni0154" unicode="&#x0154;" d="M471 82C471 45 446 25 415 25C382 25 330 69 307 93C276 125 236 155 174 175C323 189 408 297 408 436C408 587 310 700 139 700L40 700L40 0L124 0L124 173C234 173 245-12 381-12C431-12 476 19 476 82ZM124 183L124 690L139 690C256 690 324 584 324 436C324 287 256 183 139 183ZM297 831C308 838 313 845 313 852C313 863 300 873 280 873C258 873 247 865 237 853L153 750L163 750Z"  horiz-adv-x="486" vert-adv-y="1000"  />

      
      <glyph glyph-name="uni0158" unicode="&#x0158;" d="M471 82C471 45 446 25 415 25C382 25 330 69 307 93C276 125 236 155 174 175C323 189 408 297 408 436C408 587 310 700 139 700L40 700L40 0L124 0L124 173C234 173 245-12 381-12C431-12 476 19 476 82ZM124 183L124 690L139 690C256 690 324 584 324 436C324 287 256 183 139 183ZM76 873L66 873L150 770C159 759 174 750 193 750C212 750 227 759 236 770L320 873L310 873L193 793Z"  horiz-adv-x="486" vert-adv-y="1000"  />

      
      <glyph glyph-name="uni53" unicode="&#x53;" d="M20 93C53 32 123-9 198-9C312-9 436 60 436 193C436 447 81 377 81 562C81 649 138 699 243 699C294 699 364 664 388 627L396 633C373 671 301 709 243 709C141 709 27 649 27 532C27 292 373 366 373 169C373 75 317 1 198 1C126 1 60 40 29 98Z"  horiz-adv-x="456" vert-adv-y="1000"  />

      
      <glyph glyph-name="uni015A" unicode="&#x015A;" d="M49 98C80 40 146 1 218 1C337 1 393 75 393 169C393 366 47 292 47 532C47 649 161 709 263 709C321 709 393 671 416 633L408 627C384 664 314 699 263 699C158 699 101 649 101 562C101 377 456 447 456 193C456 60 332-9 218-9C143-9 73 32 40 93ZM322 831C333 838 338 845 338 852C338 863 325 873 305 873C283 873 272 865 262 853L178 750L188 750Z"  horiz-adv-x="476" vert-adv-y="1000"  />

      
      <glyph glyph-name="uni0160" unicode="&#x0160;" d="M49 98C80 40 146 1 218 1C337 1 393 75 393 169C393 366 47 292 47 532C47 649 161 709 263 709C321 709 393 671 416 633L408 627C384 664 314 699 263 699C158 699 101 649 101 562C101 377 456 447 456 193C456 60 332-9 218-9C143-9 73 32 40 93ZM141 873L131 873L215 770C224 759 239 750 258 750C277 750 292 759 301 770L385 873L375 873L258 793Z"  horiz-adv-x="476" vert-adv-y="1000"  />

      
      <glyph glyph-name="uni54" unicode="&#x54;" d="M288 690L482 690L482 700L10 700L10 690L204 690L204 0L288 0Z"  horiz-adv-x="492" vert-adv-y="1000"  />

      
      <glyph glyph-name="uni0164" unicode="&#x0164;" d="M288 690L482 690L482 700L10 700L10 690L204 690L204 0L288 0ZM129 873L119 873L203 770C212 759 227 750 246 750C265 750 280 759 289 770L373 873L363 873L246 793Z"  horiz-adv-x="492" vert-adv-y="1000"  />

      
      <glyph glyph-name="unide" unicode="&#xde;" d="M124 133L124 640L139 640C256 640 324 534 324 386C324 237 256 133 139 133ZM124 650L124 700L40 700L40 0L124 0L124 123L139 123C310 123 408 236 408 386C408 537 310 650 139 650Z"  horiz-adv-x="418" vert-adv-y="1000"  />

      
      <glyph glyph-name="uni55" unicode="&#x55;" d="M520 700L510 700L510 189C510 94 414 8 312 8C201 8 114 72 114 189L114 700L30 700L30 189C30 68 154-13 275-13C396-13 520 68 520 189Z"  horiz-adv-x="550" vert-adv-y="1000"  />

      
      <glyph glyph-name="unida" unicode="&#xda;" d="M520 189C520 68 396-13 275-13C154-13 30 68 30 189L30 700L114 700L114 189C114 72 201 8 312 8C414 8 510 94 510 189L510 700L520 700ZM369 831C380 838 385 845 385 852C385 863 372 873 352 873C330 873 319 865 309 853L225 750L235 750Z"  horiz-adv-x="550" vert-adv-y="1000"  />

      
      <glyph glyph-name="unidb" unicode="&#xdb;" d="M520 189C520 68 396-13 275-13C154-13 30 68 30 189L30 700L114 700L114 189C114 72 201 8 312 8C414 8 510 94 510 189L510 700L520 700ZM305 830L422 750L432 750L348 853C339 864 324 873 305 873C286 873 271 864 262 853L178 750L188 750Z"  horiz-adv-x="550" vert-adv-y="1000"  />

      
      <glyph glyph-name="unidc" unicode="&#xdc;" d="M520 189C520 68 396-13 275-13C154-13 30 68 30 189L30 700L114 700L114 189C114 72 201 8 312 8C414 8 510 94 510 189L510 700L520 700ZM363 786C363 765 378 750 399 750C420 750 437 765 437 786C437 807 420 823 399 823C378 823 363 807 363 786ZM168 786C168 765 183 750 204 750C225 750 242 765 242 786C242 807 225 823 204 823C183 823 168 807 168 786Z"  horiz-adv-x="550" vert-adv-y="1000"  />

      
      <glyph glyph-name="unid9" unicode="&#xd9;" d="M520 189C520 68 396-13 275-13C154-13 30 68 30 189L30 700L114 700L114 189C114 72 201 8 312 8C414 8 510 94 510 189L510 700L520 700ZM375 750L385 750L301 853C291 865 280 873 258 873C238 873 225 863 225 852C225 845 230 838 241 831Z"  horiz-adv-x="550" vert-adv-y="1000"  />

      
      <glyph glyph-name="uni0170" unicode="&#x0170;" d="M520 189C520 68 396-13 275-13C154-13 30 68 30 189L30 700L114 700L114 189C114 72 201 8 312 8C414 8 510 94 510 189L510 700L520 700ZM339 831C350 838 355 845 355 852C355 863 342 873 322 873C300 873 289 865 279 853L195 750L205 750ZM459 831C470 838 475 845 475 852C475 863 462 873 442 873C420 873 409 865 399 853L315 750L325 750Z"  horiz-adv-x="550" vert-adv-y="1000"  />

      
      <glyph glyph-name="uni016A" unicode="&#x016A;" d="M520 189C520 68 396-13 275-13C154-13 30 68 30 189L30 700L114 700L114 189C114 72 201 8 312 8C414 8 510 94 510 189L510 700L520 700ZM410 750L410 770L200 770L200 750Z"  horiz-adv-x="550" vert-adv-y="1000"  />

      
      <glyph glyph-name="uni0172" unicode="&#x0172;" d="M520 700L510 700L510 189C510 94 414 8 312 8C201 8 114 72 114 189L114 700L30 700L30 189C30 68 154-13 275-13C293-13 311-11 329-7C302-22 276-47 276-76C276-98 293-113 323-113C351-113 380-101 426-57L421-53C389-82 365-91 349-91C329-91 315-83 315-67C315-44 318-21 354-1C444 25 520 94 520 189Z"  horiz-adv-x="550" vert-adv-y="1000"  />

      
      <glyph glyph-name="uni016E" unicode="&#x016E;" d="M520 189C520 68 396-13 275-13C154-13 30 68 30 189L30 700L114 700L114 189C114 72 201 8 312 8C414 8 510 94 510 189L510 700L520 700ZM255 809C255 831 272 849 294 849C316 849 334 831 334 809C334 787 316 770 294 770C272 770 255 787 255 809ZM235 809C235 776 261 750 294 750C328 750 354 776 354 809C354 843 328 869 294 869C261 869 235 843 235 809Z"  horiz-adv-x="550" vert-adv-y="1000"  />

      
      <glyph glyph-name="uni56" unicode="&#x56;" d="M316-20L622 700L612 700L353 90L94 700L10 700Z"  horiz-adv-x="632" vert-adv-y="1000"  />

      
      <glyph glyph-name="uni57" unicode="&#x57;" d="M622 700L300 700L456 332L353 90L94 700L10 700L316-20L461 321L606-20L912 700L902 700L643 90L503 420ZM388 690L608 690L498 431Z"  horiz-adv-x="922" vert-adv-y="1000"  />

      
      <glyph glyph-name="uni58" unicode="&#x58;" d="M122 700L20 700L263 326L10 0L22 0L268 317L475 0L577 0L324 389L566 700L554 700L318 397Z"  horiz-adv-x="587" vert-adv-y="1000"  />

      
      <glyph glyph-name="uni59" unicode="&#x59;" d="M10 700L270 182L270 0L354 0L354 202L604 700L594 700L349 212L104 700Z"  horiz-adv-x="614" vert-adv-y="1000"  />

      
      <glyph glyph-name="unidd" unicode="&#xdd;" d="M10 700L270 182L270 0L354 0L354 202L604 700L594 700L349 212L104 700ZM413 831C424 838 429 845 429 852C429 863 416 873 396 873C374 873 363 865 353 853L269 750L279 750Z"  horiz-adv-x="614" vert-adv-y="1000"  />

      
      <glyph glyph-name="uni0178" unicode="&#x0178;" d="M10 700L270 182L270 0L354 0L354 202L604 700L594 700L349 212L104 700ZM410 786C410 765 425 750 446 750C467 750 484 765 484 786C484 807 467 823 446 823C425 823 410 807 410 786ZM215 786C215 765 230 750 251 750C272 750 289 765 289 786C289 807 272 823 251 823C230 823 215 807 215 786Z"  horiz-adv-x="614" vert-adv-y="1000"  />

      
      <glyph glyph-name="uni5a" unicode="&#x5a;" d="M462 700L20 700L20 690L366 690L10 0L467 0L467 10L105 10Z"  horiz-adv-x="477" vert-adv-y="1000"  />

      
      <glyph glyph-name="uni0179" unicode="&#x0179;" d="M462 700L20 700L20 690L366 690L10 0L467 0L467 10L105 10ZM322 831C333 838 338 845 338 852C338 863 325 873 305 873C283 873 272 865 262 853L178 750L188 750Z"  horiz-adv-x="477" vert-adv-y="1000"  />

      
      <glyph glyph-name="uni017D" unicode="&#x017D;" d="M462 700L20 700L20 690L366 690L10 0L467 0L467 10L105 10ZM121 873L111 873L195 770C204 759 219 750 238 750C257 750 272 759 281 770L365 873L355 873L238 793Z"  horiz-adv-x="477" vert-adv-y="1000"  />

      
      <glyph glyph-name="uni017B" unicode="&#x017B;" d="M462 700L20 700L20 690L366 690L10 0L467 0L467 10L105 10ZM205 783C205 764 219 750 238 750C257 750 272 764 272 783C272 802 257 817 238 817C219 817 205 802 205 783Z"  horiz-adv-x="477" vert-adv-y="1000"  />

      
      <glyph glyph-name="uni61" unicode="&#x61;" d="M393 713C183 713 30 550 30 350C30 149 183-13 393-13C521-13 617 43 672 131L672 0L756 0L756 700L672 700L672 568C617 657 521 713 393 713ZM672 549L672 151C615 49 511-3 393-3C232-3 118 155 118 350C118 545 232 703 393 703C511 703 615 650 672 549Z"  horiz-adv-x="796" vert-adv-y="1000"  />

      
      <glyph glyph-name="unie1" unicode="&#xe1;" d="M403 713C193 713 40 550 40 350C40 149 193-13 403-13C531-13 627 43 682 131L682 0L766 0L766 700L682 700L682 568C627 657 531 713 403 713ZM682 549L682 151C625 49 521-3 403-3C242-3 128 155 128 350C128 545 242 703 403 703C521 703 625 650 682 549ZM462 801C473 808 478 815 478 822C478 833 465 843 445 843C423 843 412 835 402 823L318 720L328 720Z"  horiz-adv-x="796" vert-adv-y="1000"  />

      
      <glyph glyph-name="unie2" unicode="&#xe2;" d="M403 713C193 713 40 550 40 350C40 149 193-13 403-13C531-13 627 43 682 131L682 0L766 0L766 700L682 700L682 568C627 657 531 713 403 713ZM682 549L682 151C625 49 521-3 403-3C242-3 128 155 128 350C128 545 242 703 403 703C521 703 625 650 682 549ZM398 830L515 750L525 750L441 853C432 864 417 873 398 873C379 873 364 864 355 853L271 750L281 750Z"  horiz-adv-x="796" vert-adv-y="1000"  />

      
      <glyph glyph-name="unib4" unicode="&#xb4;" d="M178 831C189 838 194 845 194 852C194 863 181 873 161 873C139 873 128 865 118 853L34 750L44 750Z"  horiz-adv-x="240" vert-adv-y="1000"  />

      
      <glyph glyph-name="unie4" unicode="&#xe4;" d="M403 713C193 713 40 550 40 350C40 149 193-13 403-13C531-13 627 43 682 131L682 0L766 0L766 700L682 700L682 568C627 657 531 713 403 713ZM682 549L682 151C625 49 521-3 403-3C242-3 128 155 128 350C128 545 242 703 403 703C521 703 625 650 682 549ZM458 806C458 785 473 770 494 770C515 770 532 785 532 806C532 827 515 843 494 843C473 843 458 827 458 806ZM263 806C263 785 278 770 299 770C320 770 337 785 337 806C337 827 320 843 299 843C278 843 263 827 263 806Z"  horiz-adv-x="796" vert-adv-y="1000"  />

      
      <glyph glyph-name="unie6" unicode="&#xe6;" d="M393 713C183 713 30 550 30 350C30 149 183-13 393-13C521-13 617 43 672 131L672 0L756 0L756 112C821 35 919-13 1034-13L1034-3C873-3 759 155 759 350C759 389 764 439 772 473L1380 473C1344 616 1196 713 1034 713C919 713 821 664 756 587L756 700L672 700L672 568C617 657 521 713 393 713ZM672 151C615 49 511-3 393-3C232-3 118 155 118 350C118 545 232 703 393 703C511 703 615 650 672 549ZM1034 702C1159 702 1256 614 1293 483L775 483C812 614 909 702 1034 702ZM1397 337C1397 137 1244-13 1034-13L1034-3C1211-3 1387 115 1387 337Z"  horiz-adv-x="1427" vert-adv-y="1000"  />

      
      <glyph glyph-name="uni0410" unicode="&#x0410;" d="M316 720L10 0L20 0L68 114L489 114L538 0L622 0ZM279 610L485 124L72 124Z"  horiz-adv-x="632" vert-adv-y="1000"  />

      
      <glyph glyph-name="uni0411" unicode="&#x0411;" d="M139 0C310 0 408 113 408 264C408 414 310 527 139 527L124 527L124 690L317 690L317 700L40 700L40 0ZM139 517C256 517 324 413 324 264C324 116 256 10 139 10L124 10L124 517Z"  horiz-adv-x="418" vert-adv-y="1000"  />

      
      <glyph glyph-name="uni0412" unicode="&#x0412;" d="M294 586C294 655 236 700 129 700L40 700L40 0L140 0C310 0 408 114 408 235C408 344 329 459 189 479C257 495 294 532 294 586ZM325 235C325 117 256 10 140 10L124 10L124 473L140 473C256 473 325 355 325 235ZM129 690C193 690 236 653 236 586C236 520 193 483 129 483L124 483L124 690Z"  horiz-adv-x="428" vert-adv-y="1000"  />

      
      <glyph glyph-name="uni0413" unicode="&#x0413;" d="M124 690L317 690L317 700L40 700L40 0L124 0Z"  horiz-adv-x="327" vert-adv-y="1000"  />

      
      <glyph glyph-name="uni0414" unicode="&#x0414;" d="M0 10L80-160L141-160L66 0L496 0L421-160L482-160L562 10L481 10L481 700L141 700L141 690L282 690C282 287 142 10 37 10ZM292 690L397 690L397 10L76 10C191 67 292 364 292 690Z"  horiz-adv-x="562" vert-adv-y="1000"  />

      
      <glyph glyph-name="uni0415" unicode="&#x0415;" d="M317 690L317 700L40 700L40 0L317 0L317 10L124 10L124 347L317 347L317 357L124 357L124 690Z"  horiz-adv-x="347" vert-adv-y="1000"  />

      
      <glyph glyph-name="uni0401" unicode="&#x0401;" d="M317 690L317 700L40 700L40 0L317 0L317 10L124 10L124 347L317 347L317 357L124 357L124 690ZM234 786C234 765 249 750 270 750C291 750 308 765 308 786C308 807 291 823 270 823C249 823 234 807 234 786ZM39 786C39 765 54 750 75 750C96 750 113 765 113 786C113 807 96 823 75 823C54 823 39 807 39 786Z"  horiz-adv-x="347" vert-adv-y="1000"  />

      
      <glyph glyph-name="uni0416" unicode="&#x0416;" d="M771 701C563 701 603 253 446 253L446 700L362 700L362 253C204 253 244 701 36 701L36 691C218 691 194 313 323 251C185 230 168 25 71 25C40 25 15 45 15 82L10 82C10 19 55-12 105-12C241-12 252 243 362 243L362 0L446 0L446 243C576 243 567-12 703-12C753-12 798 19 798 82L793 82C793 45 768 25 737 25C635 25 640 247 487 253C613 318 590 691 771 691Z"  horiz-adv-x="808" vert-adv-y="1000"  />

      
      <glyph glyph-name="uni0417" unicode="&#x0417;" d="M183 440L199 440C315 440 374 340 374 220C374 102 305-3 189-3C120-3 71 17 16 55L10 45C64 9 114-13 189-13C359-13 457 99 457 220C457 329 370 427 248 447C346 463 393 534 393 588C393 657 335 713 228 713C153 713 103 691 49 655L55 645C110 683 159 703 228 703C292 703 335 655 335 588C335 522 263 451 199 451L183 451Z"  horiz-adv-x="487" vert-adv-y="1000"  />

      
      <glyph glyph-name="uni0418" unicode="&#x0418;" d="M596 713L124 107L124 700L40 700L40-13L44-13L516 594L516 0L600 0L600 713Z"  horiz-adv-x="640" vert-adv-y="1000"  />

      
      <glyph glyph-name="uni0419" unicode="&#x0419;" d="M351 694C266 694 215 710 175 752L172 750C205 693 264 658 351 658C438 658 497 693 530 750L527 752C487 710 436 694 351 694ZM596 713L124 107L124 700L40 700L40-13L44-13L516 594L516 0L600 0L600 713Z"  horiz-adv-x="640" vert-adv-y="1000"  />

      
      <glyph glyph-name="uni041A" unicode="&#x041A;" d="M40 700L40 0L124 0L124 700ZM455 700L441 700L129 225L355 0L465 0L181 283Z"  horiz-adv-x="475" vert-adv-y="1000"  />

      
      <glyph glyph-name="uni041B" unicode="&#x041B;" d="M107-13C237-13 302 327 302 690L397 690L397 0L481 0L481 700L121 700L121 690L292 690C292 287 212-3 107-3C65-3 42 38 40 114L0 114C0 11 57-13 107-13Z"  horiz-adv-x="521" vert-adv-y="1000"  />

      
      <glyph glyph-name="uni041C" unicode="&#x041C;" d="M526 700L320 118L114 700L30 700L30 0L40 0L40 671L278 0L288 0L526 671L526 0L610 0L610 700Z"  horiz-adv-x="650" vert-adv-y="1000"  />

      
      <glyph glyph-name="uni041D" unicode="&#x041D;" d="M516 700L516 359L124 359L124 700L40 700L40 0L124 0L124 349L516 349L516 0L600 0L600 700Z"  horiz-adv-x="640" vert-adv-y="1000"  />

      
      <glyph glyph-name="uni041E" unicode="&#x041E;" d="M393 703C554 703 668 545 668 350C668 155 554-3 393-3C232-3 118 155 118 350C118 545 232 703 393 703ZM756 350C756 550 603 713 393 713C183 713 30 550 30 350C30 149 183-13 393-13C603-13 756 149 756 350Z"  horiz-adv-x="786" vert-adv-y="1000"  />

      
      <glyph glyph-name="uni041F" unicode="&#x041F;" d="M600 700L40 700L40 0L124 0L124 690L516 690L516 0L600 0Z"  horiz-adv-x="640" vert-adv-y="1000"  />

      
      <glyph glyph-name="uni0420" unicode="&#x0420;" d="M124 183L124 690L139 690C256 690 324 584 324 436C324 287 256 183 139 183ZM40 700L40 0L124 0L124 173L139 173C310 173 408 286 408 436C408 587 310 700 139 700Z"  horiz-adv-x="418" vert-adv-y="1000"  />

      
      <glyph glyph-name="uni0421" unicode="&#x0421;" d="M118 350C118 545 232 703 392 703C461 703 530 683 585 645L591 655C537 691 467 713 392 713C182 713 30 550 30 350C30 150 182-13 392-13C467-13 537 9 591 45L585 55C530 17 461-3 392-3C232-3 118 155 118 350Z"  horiz-adv-x="611" vert-adv-y="1000"  />

      
      <glyph glyph-name="uni0422" unicode="&#x0422;" d="M288 690L482 690L482 700L10 700L10 690L204 690L204 0L288 0Z"  horiz-adv-x="492" vert-adv-y="1000"  />

      
      <glyph glyph-name="uni0423" unicode="&#x0423;" d="M5 700L299 90C273 36 233-3 176-3C77-3 74 75 74 141L40 141C40 80 72-13 176-13C268-13 303 65 345 170L557 700L547 700L342 189L96 700Z"  horiz-adv-x="562" vert-adv-y="1000"  />

      
      <glyph glyph-name="uni0424" unicode="&#x0424;" d="M279 650C108 650 10 517 10 366C10 216 108 83 279 83L294 83L294 0L378 0L378 83L393 83C564 83 662 216 662 366C662 517 564 650 393 650L378 650L378 730L294 730L294 650ZM378 93L378 640L393 640C510 640 578 514 578 366C578 217 510 93 393 93ZM279 93C162 93 94 217 94 366C94 514 162 640 279 640L294 640L294 93Z"  horiz-adv-x="672" vert-adv-y="1000"  />

      
      <glyph glyph-name="uni0425" unicode="&#x0425;" d="M122 700L20 700L263 326L10 0L22 0L268 317L475 0L577 0L324 389L566 700L554 700L318 397Z"  horiz-adv-x="587" vert-adv-y="1000"  />

      
      <glyph glyph-name="uni0426" unicode="&#x0426;" d="M680 10L600 10L600 700L516 700L516 10L124 10L124 700L40 700L40 0L614 0L539-160L600-160Z"  horiz-adv-x="680" vert-adv-y="1000"  />

      
      <glyph glyph-name="uni0427" unicode="&#x0427;" d="M10 700L10 436C10 286 108 173 279 173L294 173L294 0L378 0L378 700L294 700L294 183L279 183C162 183 94 287 94 436L94 700Z"  horiz-adv-x="418" vert-adv-y="1000"  />

      
      <glyph glyph-name="uni0428" unicode="&#x0428;" d="M400 700L316 700L316 10L124 10L124 700L40 700L40 0L676 0L676 700L592 700L592 10L400 10Z"  horiz-adv-x="716" vert-adv-y="1000"  />

      
      <glyph glyph-name="uni0429" unicode="&#x0429;" d="M400 700L316 700L316 10L124 10L124 700L40 700L40 0L690 0L615-160L676-160L756 10L676 10L676 700L592 700L592 10L400 10Z"  horiz-adv-x="756" vert-adv-y="1000"  />

      
      <glyph glyph-name="uni042A" unicode="&#x042A;" d="M264 0C435 0 533 113 533 264C533 414 435 527 264 527L249 527L249 700L10 700L10 690L165 690L165 0ZM264 517C381 517 449 413 449 264C449 116 381 10 264 10L249 10L249 517Z"  horiz-adv-x="543" vert-adv-y="1000"  />

      
      <glyph glyph-name="uni042B" unicode="&#x042B;" d="M574 700L490 700L490 483L124 483L124 700L40 700L40 0L139 0C310 0 408 111 408 242C408 335 341 442 222 473L490 473L490 0L574 0ZM139 473C256 473 324 369 324 242C324 116 256 10 139 10L124 10L124 473Z"  horiz-adv-x="614" vert-adv-y="1000"  />

      
      <glyph glyph-name="uni042C" unicode="&#x042C;" d="M139 0C310 0 408 113 408 264C408 414 310 527 139 527L124 527L124 700L40 700L40 0ZM139 517C256 517 324 413 324 264C324 116 256 10 139 10L124 10L124 517Z"  horiz-adv-x="418" vert-adv-y="1000"  />

      
      <glyph glyph-name="uni042D" unicode="&#x042D;" d="M104 349L503 349C502 154 388-3 229-3C160-3 91 17 36 55L30 45C84 9 154-13 229-13C439-13 591 150 591 350C591 550 439 713 229 713C154 713 84 691 30 655L36 645C91 683 160 703 229 703C386 703 499 550 503 359L104 359Z"  horiz-adv-x="611" vert-adv-y="1000"  />

      
      <glyph glyph-name="uni042E" unicode="&#x042E;" d="M926 350C926 550 773 713 563 713C356 713 205 555 200 359L124 359L124 700L40 700L40 0L124 0L124 349L200 349C200 148 353-13 563-13C773-13 926 149 926 350ZM563 703C724 703 838 545 838 350C838 155 724-3 563-3C402-3 288 155 288 350C288 545 402 703 563 703Z"  horiz-adv-x="956" vert-adv-y="1000"  />

      
      <glyph glyph-name="uni042F" unicode="&#x042F;" d="M347 183C230 183 162 287 162 436C162 584 230 690 347 690L362 690L362 183ZM10 82C10 19 55-12 105-12C241-12 252 173 362 173L362 0L446 0L446 700L347 700C176 700 78 587 78 436C78 297 163 189 312 175C250 155 210 125 179 93C156 69 104 25 71 25C40 25 15 45 15 82Z"  horiz-adv-x="486" vert-adv-y="1000"  />

      
      <glyph glyph-name="uni0490" unicode="&#x0490;" d="M317 690L317 803L307 803L307 700L40 700L40 0L124 0L124 690Z"  horiz-adv-x="327" vert-adv-y="1000"  />

      
      <glyph glyph-name="uni0402" unicode="&#x0402;" d="M571 264C571 414 473 527 302 527L287 527L287 690L481 690L481 700L9 700L9 690L203 690L203 0L287 0L287 517L302 517C419 517 487 413 487 264C487 116 449 10 332 10L332 0C503 0 571 113 571 264Z"  horiz-adv-x="581" vert-adv-y="1000"  />

      
      <glyph glyph-name="uni0403" unicode="&#x0403;" d="M124 690L317 690L317 700L40 700L40 0L124 0ZM249 831C260 838 265 845 265 852C265 863 252 873 232 873C210 873 199 865 189 853L105 750L115 750Z"  horiz-adv-x="327" vert-adv-y="1000"  />

      
      <glyph glyph-name="uni0404" unicode="&#x0404;" d="M527 359L128 359C131 550 244 703 402 703C471 703 540 683 595 645L601 655C547 691 477 713 402 713C192 713 40 550 40 350C40 150 192-13 402-13C477-13 547 9 601 45L595 55C540 17 471-3 402-3C242-3 128 154 128 349L527 349Z"  horiz-adv-x="611" vert-adv-y="1000"  />

      
      <glyph glyph-name="uni0405" unicode="&#x0405;" d="M20 93C53 32 123-9 198-9C312-9 436 60 436 193C436 447 81 377 81 562C81 649 138 699 243 699C294 699 364 664 388 627L396 633C373 671 301 709 243 709C141 709 27 649 27 532C27 292 373 366 373 169C373 75 317 1 198 1C126 1 60 40 29 98Z"  horiz-adv-x="456" vert-adv-y="1000"  />

      
      <glyph glyph-name="uni0406" unicode="&#x0406;" d="M124 700L40 700L40 0L124 0Z"  horiz-adv-x="164" vert-adv-y="1000"  />

      
      <glyph glyph-name="uni0407" unicode="&#x0407;" d="M128 766C128 745 143 730 164 730C185 730 202 745 202 766C202 787 185 803 164 803C143 803 128 787 128 766ZM-36 766C-36 745-21 730 0 730C21 730 38 745 38 766C38 787 21 803 0 803C-21 803-36 787-36 766ZM124 700L40 700L40 0L124 0Z"  horiz-adv-x="164" vert-adv-y="1000"  />

      
      <glyph glyph-name="uni0408" unicode="&#x0408;" d="M132 3C78 3 44 25 10 76L0 69C32 20 71-13 152-13C286-13 350 90 350 199L350 700L266 700L266 199C266 54 203 3 132 3Z"  horiz-adv-x="390" vert-adv-y="1000"  />

      
      <glyph glyph-name="uni0409" unicode="&#x0409;" d="M496 0C667 0 765 111 765 242C765 372 667 483 496 483L481 483L481 700L121 700L121 690L292 690C292 287 212-3 107-3C65-3 42 38 40 114L0 114C0 11 57-13 107-13C237-13 302 327 302 690L397 690L397 0ZM496 473C613 473 681 369 681 242C681 116 613 10 496 10L481 10L481 473Z"  horiz-adv-x="775" vert-adv-y="1000"  />

      
      <glyph glyph-name="uni040A" unicode="&#x040A;" d="M615 0C786 0 884 111 884 242C884 372 786 483 615 483L600 483L600 700L516 700L516 483L124 483L124 700L40 700L40 0L124 0L124 473L516 473L516 0ZM615 473C732 473 800 369 800 242C800 116 732 10 615 10L600 10L600 473Z"  horiz-adv-x="894" vert-adv-y="1000"  />

      
      <glyph glyph-name="uni040B" unicode="&#x040B;" d="M571 0L571 264C571 414 473 527 302 527L287 527L287 690L481 690L481 700L9 700L9 690L203 690L203 0L287 0L287 517L302 517C419 517 487 413 487 264L487 0Z"  horiz-adv-x="581" vert-adv-y="1000"  />

      
      <glyph glyph-name="uni040C" unicode="&#x040C;" d="M40 700L40 0L124 0L124 700ZM455 700L441 700L129 225L355 0L465 0L181 283ZM301 831C312 838 317 845 317 852C317 863 304 873 284 873C262 873 251 865 241 853L157 750L167 750Z"  horiz-adv-x="475" vert-adv-y="1000"  />

      
      <glyph glyph-name="uni040E" unicode="&#x040E;" d="M332 694C247 694 196 710 156 752L153 750C186 693 245 658 332 658C419 658 478 693 511 750L508 752C468 710 417 694 332 694ZM5 700L299 90C273 36 233-3 176-3C77-3 74 75 74 141L40 141C40 80 72-13 176-13C268-13 303 65 345 170L557 700L547 700L342 189L96 700Z"  horiz-adv-x="562" vert-adv-y="1000"  />

      
      <glyph glyph-name="uni0430" unicode="&#x0430;" d="M393 713C183 713 30 550 30 350C30 149 183-13 393-13C521-13 617 43 672 131L672 0L756 0L756 700L672 700L672 568C617 657 521 713 393 713ZM672 549L672 151C615 49 511-3 393-3C232-3 118 155 118 350C118 545 232 703 393 703C511 703 615 650 672 549Z"  horiz-adv-x="796" vert-adv-y="1000"  />

      
      <glyph glyph-name="uni0431" unicode="&#x0431;" d="M30 299C37 125 179-13 371-13C567-13 711 133 711 313C711 493 567 641 371 641C212 641 88 544 46 413C71 644 173 728 287 728C373 728 448 689 535 689C604 689 652 702 699 780L689 783C659 740 637 730 601 730C537 730 480 784 356 784C173 784 32 656 30 308ZM371 631C522 631 629 490 629 313C629 138 522-3 371-3C219-3 112 138 112 313C112 490 219 631 371 631Z"  horiz-adv-x="741" vert-adv-y="1000"  />

      
      <glyph glyph-name="uni0432" unicode="&#x0432;" d="M128 385C274 385 294 262 294 198C294 134 274 10 128 10L124 10L124 385ZM40 700L40 0L128 0C283 0 387 93 387 209C387 280 341 362 208 392C315 426 342 481 342 541C342 646 263 700 129 700ZM139 690C229 690 280 612 280 542C280 472 229 395 139 395L124 395L124 690Z"  horiz-adv-x="417" vert-adv-y="1000"  />

      
      <glyph glyph-name="uni0433" unicode="&#x0433;" d="M175 564C175 410 20 323 20 167C20 77 86 0 218 0L218 10C135 10 91 62 91 129C91 284 238 370 238 527C238 621 169 700 34 700L34 690C119 690 175 635 175 564Z"  horiz-adv-x="258" vert-adv-y="1000"  />

      
      <glyph glyph-name="uni0434" unicode="&#x0434;" d="M0 10L40-160L81-160L46 0L496 0L461-160L502-160L542 10L444 10L444 700L144 700L144 690L305 690L93 10ZM315 690L360 690L360 10L118 10Z"  horiz-adv-x="542" vert-adv-y="1000"  />

      
      <glyph glyph-name="uni0435" unicode="&#x0435;" d="M739 473C703 616 555 713 393 713C183 713 30 550 30 350C30 149 183-13 393-13C603-13 756 137 756 337L746 337C746 115 570-3 393-3C232-3 118 155 118 350C118 389 123 439 131 473ZM393 702C518 702 615 614 652 483L134 483C171 614 268 702 393 702Z"  horiz-adv-x="786" vert-adv-y="1000"  />

      
      <glyph glyph-name="uni0451" unicode="&#x0451;" d="M739 473C703 616 555 713 393 713C183 713 30 550 30 350C30 149 183-13 393-13C603-13 756 137 756 337L746 337C746 115 570-3 393-3C232-3 118 155 118 350C118 389 123 439 131 473ZM393 702C518 702 615 614 652 483L134 483C171 614 268 702 393 702ZM453 786C453 765 468 750 489 750C510 750 527 765 527 786C527 807 510 823 489 823C468 823 453 807 453 786ZM258 786C258 765 273 750 294 750C315 750 332 765 332 786C332 807 315 823 294 823C273 823 258 807 258 786Z"  horiz-adv-x="786" vert-adv-y="1000"  />

      
      <glyph glyph-name="uni0436" unicode="&#x0436;" d="M254 700L254 0L338 0L338 700ZM15 0L99 0C119 156 181 287 249 425L59 700L45 700L189 488C104 327 39 173 15 0ZM547 700L533 700L343 425C411 287 473 156 493 0L577 0C553 173 487 327 403 488Z"  horiz-adv-x="592" vert-adv-y="1000"  />

      
      <glyph glyph-name="uni0437" unicode="&#x0437;" d="M10 0C165 0 269 93 269 209C269 280 243 362 110 392C197 426 224 481 224 541C224 646 145 700 11 700L11 487L21 487L21 689C111 689 162 611 162 541C162 487 146 395 66 395L66 385C157 385 176 290 176 209C176 141 156 10 10 10Z"  horiz-adv-x="299" vert-adv-y="1000"  />

      
      <glyph glyph-name="uni0438" unicode="&#x0438;" d="M398 700L124 174L124 700L40 700L40 0L50 0L324 526L324 0L408 0L408 700Z"  horiz-adv-x="448" vert-adv-y="1000"  />

      
      <glyph glyph-name="uni0439" unicode="&#x0439;" d="M399 700L125 174L125 700L41 700L41 0L51 0L325 526L325 0L409 0L409 700ZM240 698C297 698 346 723 379 790L376 792C336 740 295 734 240 734C185 734 144 740 104 792L101 790C134 723 183 698 240 698Z"  horiz-adv-x="449" vert-adv-y="1000"  />

      
      <glyph glyph-name="uni043A" unicode="&#x043A;" d="M40 700L40 0L124 0L124 700ZM405 700L391 700L129 425L365 0L465 0L199 483Z"  horiz-adv-x="475" vert-adv-y="1000"  />

      
      <glyph glyph-name="uni043B" unicode="&#x043B;" d="M35 0L235 690L280 690L280 0L364 0L364 700L64 700L64 690L225 690L10 0Z"  horiz-adv-x="404" vert-adv-y="1000"  />

      
      <glyph glyph-name="uni043C" unicode="&#x043C;" d="M416 700L273 400L127 700L40 700L40 0L50 0L50 677L228 303L238 303L416 681L416 0L500 0L500 700Z"  horiz-adv-x="540" vert-adv-y="1000"  />

      
      <glyph glyph-name="uni043D" unicode="&#x043D;" d="M324 700L324 471L124 471L124 700L40 700L40 0L124 0L124 461L324 461L324 0L408 0L408 700Z"  horiz-adv-x="448" vert-adv-y="1000"  />

      
      <glyph glyph-name="uni043E" unicode="&#x043E;" d="M269-13C440-13 508 170 508 350C508 531 440 713 269 713C98 713 30 531 30 350C30 170 98-13 269-13ZM269-3C152-3 114 171 114 350C114 528 152 703 269 703C386 703 424 528 424 350C424 171 386-3 269-3Z"  horiz-adv-x="538" vert-adv-y="1000"  />

      
      <glyph glyph-name="uni043F" unicode="&#x043F;" d="M408 700L40 700L40 0L124 0L124 690L324 690L324 0L408 0Z"  horiz-adv-x="438" vert-adv-y="1000"  />

      
      <glyph glyph-name="uni0440" unicode="&#x0440;" d="M40 700L40-50L124-50L124 50L139 50C310 50 408 195 408 375C408 556 310 700 139 700ZM124 60L124 690L139 690C256 690 324 553 324 375C324 196 256 60 139 60Z"  horiz-adv-x="438" vert-adv-y="1000"  />

      
      <glyph glyph-name="uni0441" unicode="&#x0441;" d="M392 487L392 700C182 700 30 550 30 350C30 150 182 0 392 0L392 10C232 10 118 155 118 350C118 541 227 683 382 689L382 487Z"  horiz-adv-x="412" vert-adv-y="1000"  />

      
      <glyph glyph-name="uni0442" unicode="&#x0442;" d="M218 690L342 690L342 700L10 700L10 690L134 690L134 0L218 0Z"  horiz-adv-x="352" vert-adv-y="1000"  />

      
      <glyph glyph-name="uni0443" unicode="&#x0443;" d="M213 0C213-70 173-101 142-101C96-101 94-63 94-17L40-17C40-63 80-111 142-111C187-111 223-70 223 0L366 700L355 700L253 174L94 700L10 700Z"  horiz-adv-x="376" vert-adv-y="1000"  />

      
      <glyph glyph-name="uni0444" unicode="&#x0444;" d="M413 0C584 0 682 144 682 325C682 505 584 650 413 650L398 650L398 750L314 750L314 650L299 650C128 650 30 505 30 325C30 144 128 0 299 0L314 0L314-110L398-110L398 0ZM314 640L314 10L299 10C182 10 114 147 114 325C114 504 182 640 299 640ZM413 640C530 640 598 504 598 325C598 147 530 10 413 10L398 10L398 640Z"  horiz-adv-x="712" vert-adv-y="1000"  />

      
      <glyph glyph-name="uni0445" unicode="&#x0445;" d="M20 700L169 310L20 0L33 0L175 295L289 0L373 0L222 392L370 700L357 700L216 407L104 700Z"  horiz-adv-x="393" vert-adv-y="1000"  />

      
      <glyph glyph-name="uni0446" unicode="&#x0446;" d="M40 0L460 0L425-160L466-160L506 10L408 10L408 700L324 700L324 10L124 10L124 700L40 700Z"  horiz-adv-x="506" vert-adv-y="1000"  />

      
      <glyph glyph-name="uni0447" unicode="&#x0447;" d="M20 502C20 431 93 305 259 305L274 305L274 0L358 0L358 700L274 700L274 315L259 315C113 315 104 408 104 502L104 700L20 700Z"  horiz-adv-x="398" vert-adv-y="1000"  />

      
      <glyph glyph-name="uni0448" unicode="&#x0448;" d="M367 700L283 700L283 10L124 10L124 700L40 700L40 0L610 0L610 700L526 700L526 10L367 10Z"  horiz-adv-x="650" vert-adv-y="1000"  />

      
      <glyph glyph-name="uni0449" unicode="&#x0449;" d="M610 700L526 700L526 10L367 10L367 700L283 700L283 10L124 10L124 700L40 700L40 0L662 0L627-160L668-160L708 10L610 10Z"  horiz-adv-x="708" vert-adv-y="1000"  />

      
      <glyph glyph-name="uni044A" unicode="&#x044A;" d="M198 418L198 700L10 700L10 690L114 690L114 0L202 0C357 0 461 93 461 209C461 325 357 418 202 418ZM202 408C348 408 368 272 368 208C368 144 348 10 202 10L198 10L198 408Z"  horiz-adv-x="481" vert-adv-y="1000"  />

      
      <glyph glyph-name="uni044B" unicode="&#x044B;" d="M524 700L440 700L440 0L524 0ZM128 408C274 408 294 272 294 208C294 144 274 10 128 10L124 10L124 408ZM124 418L124 700L40 700L40 0L128 0C283 0 387 93 387 209C387 325 283 418 128 418Z"  horiz-adv-x="564" vert-adv-y="1000"  />

      
      <glyph glyph-name="uni044C" unicode="&#x044C;" d="M128 408C274 408 294 272 294 208C294 144 274 10 128 10L124 10L124 408ZM124 418L124 700L40 700L40 0L128 0C283 0 387 93 387 209C387 325 283 418 128 418Z"  horiz-adv-x="397" vert-adv-y="1000"  />

      
      <glyph glyph-name="uni044D" unicode="&#x044D;" d="M296 350C296 159 187 17 32 11L32 213L22 213L22 0C232 0 384 150 384 350C384 550 232 700 22 700L22 690C158 682 242 596 277 483L20 483L20 473L279 473C290 434 296 392 296 350Z"  horiz-adv-x="414" vert-adv-y="1000"  />

      
      <glyph glyph-name="uni044E" unicode="&#x044E;" d="M449-13C620-13 688 170 688 350C688 531 620 713 449 713C317 713 245 604 220 471L124 471L124 700L40 700L40 0L124 0L124 461L219 461C213 425 210 387 210 350C210 170 278-13 449-13ZM449-3C332-3 294 171 294 350C294 528 332 703 449 703C566 703 604 528 604 350C604 171 566-3 449-3Z"  horiz-adv-x="718" vert-adv-y="1000"  />

      
      <glyph glyph-name="uni044F" unicode="&#x044F;" d="M393 690L393 483L388 483C324 483 281 520 281 586C281 653 324 690 388 690ZM10 82C10 19 57-13 107-13C293-13 292 473 393 473L393 0L477 0L477 700L388 700C281 700 223 655 223 586C223 526 268 486 352 475C195 415 179 7 78 7C40 7 20 45 20 82Z"  horiz-adv-x="517" vert-adv-y="1000"  />

      
      <glyph glyph-name="uni0491" unicode="&#x0491;" d="M317 690L317 803L307 803L307 700L40 700L40 0L124 0L124 690Z"  horiz-adv-x="327" vert-adv-y="1000"  />

      
      <glyph glyph-name="uni0452" unicode="&#x0452;" d="M210-133C344-133 408-30 408 79L408 325C408 505 310 650 139 650L124 650L124 690L358 690L358 700L124 700L124 750L40 750L40 700L0 700L0 690L40 690L40 0L124 0L124 640L139 640C256 640 324 504 324 325L324 79C324-66 281-123 210-123Z"  horiz-adv-x="438" vert-adv-y="1000"  />

      
      <glyph glyph-name="uni0453" unicode="&#x0453;" d="M175 564C175 635 119 690 34 690L34 700C169 700 238 621 238 527C238 370 91 284 91 129C91 62 135 10 218 10L218 0C86 0 20 77 20 167C20 323 175 410 175 564ZM195 831C206 838 211 845 211 852C211 863 198 873 178 873C156 873 145 865 135 853L51 750L61 750Z"  horiz-adv-x="258" vert-adv-y="1000"  />

      
      <glyph glyph-name="uni0454" unicode="&#x0454;" d="M393 690L393 700C183 700 30 550 30 350C30 150 183 0 393 0L393 10C232 10 118 155 118 350C118 393 124 434 135 473L393 473L393 483L138 483C176 599 264 687 393 690Z"  horiz-adv-x="413" vert-adv-y="1000"  />

      
      <glyph glyph-name="uni0455" unicode="&#x0455;" d="M255 380C187 450 158 518 158 572C158 642 209 689 299 689L299 487L309 487L309 700C175 700 96 616 96 511C96 451 121 384 178 323C250 247 302 202 302 121C302 53 250-6 163-6C111-6 35 17 13 130L0 125C25 11 106-17 163-17C268-17 364 63 364 179C364 250 315 318 255 380Z"  horiz-adv-x="374" vert-adv-y="1000"  />

      
      <glyph glyph-name="uni0456" unicode="&#x0456;" d="M124 630L40 630L40 0L124 0ZM40 720C40 696 57 679 81 679C105 679 124 696 124 720C124 744 105 763 81 763C57 763 40 744 40 720Z"  horiz-adv-x="164" vert-adv-y="1000"  />

      
      <glyph glyph-name="uni0457" unicode="&#x0457;" d="M124 630L40 630L40 0L124 0ZM128 766C128 745 143 730 164 730C185 730 202 745 202 766C202 787 185 803 164 803C143 803 128 787 128 766ZM-36 766C-36 745-21 730 0 730C21 730 38 745 38 766C38 787 21 803 0 803C-21 803-36 787-36 766Z"  horiz-adv-x="164" vert-adv-y="1000"  />

      
      <glyph glyph-name="uni0458" unicode="&#x0458;" d="M40 719C40 695 57 678 81 678C105 678 124 695 124 719C124 743 105 762 81 762C57 762 40 743 40 719ZM-74-133C60-133 124-30 124 79L124 629L40 629L40 79C40-66-3-123-74-123Z"  horiz-adv-x="164" vert-adv-y="1000"  />

      
      <glyph glyph-name="uni0459" unicode="&#x0459;" d="M364 418L364 700L64 700L64 690L225 690L10 0L35 0L235 690L280 690L280 0L368 0C523 0 627 93 627 209C627 325 523 418 368 418ZM368 408C514 408 534 272 534 208C534 144 514 10 368 10L364 10L364 408Z"  horiz-adv-x="637" vert-adv-y="1000"  />

      
      <glyph glyph-name="uni045A" unicode="&#x045A;" d="M408 418L408 700L324 700L324 418L124 418L124 700L40 700L40 0L124 0L124 408L324 408L324 0L412 0C567 0 671 93 671 209C671 325 567 418 412 418ZM412 408C558 408 578 272 578 208C578 144 558 10 412 10L408 10L408 408Z"  horiz-adv-x="681" vert-adv-y="1000"  />

      
      <glyph glyph-name="uni045B" unicode="&#x045B;" d="M358 690L358 700L124 700L124 750L40 750L40 700L0 700L0 690L40 690L40 0L124 0L124 640L139 640C256 640 324 504 324 325L324 0L408 0L408 325C408 505 310 650 139 650L124 650L124 690Z"  horiz-adv-x="438" vert-adv-y="1000"  />

      
      <glyph glyph-name="uni045C" unicode="&#x045C;" d="M40 700L40 0L124 0L124 700ZM405 700L391 700L129 425L365 0L465 0L199 483ZM301 831C312 838 317 845 317 852C317 863 304 873 284 873C262 873 251 865 241 853L157 750L167 750Z"  horiz-adv-x="475" vert-adv-y="1000"  />

      
      <glyph glyph-name="uni045E" unicode="&#x045E;" d="M223 698C280 698 329 723 362 790L359 792C319 740 278 734 223 734C168 734 127 740 87 792L84 790C117 723 166 698 223 698ZM213 0C213-70 173-101 142-101C96-101 94-63 94-17L40-17C40-63 80-111 142-111C187-111 223-70 223 0L366 700L355 700L253 174L94 700L10 700Z"  horiz-adv-x="376" vert-adv-y="1000"  />

      
      <glyph glyph-name="uni040F" unicode="&#x040F;" d="M289 0L289-160L351-160L351 0L600 0L600 700L516 700L516 10L124 10L124 700L40 700L40 0Z"  horiz-adv-x="640" vert-adv-y="1000"  />

      
      <glyph glyph-name="uni045F" unicode="&#x045F;" d="M408 700L324 700L324 10L124 10L124 700L40 700L40 0L193 0L193-160L255-160L255 0L408 0Z"  horiz-adv-x="438" vert-adv-y="1000"  />

      
      <glyph glyph-name="uni2116" unicode="&#x2116;" d="M751 339L751 349L550 349L550 339ZM751 389L751 399L550 399L550 389ZM751 439L751 449L550 449L550 439ZM483 700L483 138L40 700L30 700L30 0L40 0L40 562L483 0L493 0L493 700ZM550 599C550 543 594 499 650 499C706 499 751 543 751 599C751 655 706 700 650 700C594 700 550 655 550 599ZM595 599C595 647 609 690 650 690C691 690 705 647 705 599C705 551 691 509 650 509C609 509 595 551 595 599Z"  horiz-adv-x="781" vert-adv-y="1000"  />

      
      <glyph glyph-name="unie0" unicode="&#xe0;" d="M403 713C193 713 40 550 40 350C40 149 193-13 403-13C531-13 627 43 682 131L682 0L766 0L766 700L682 700L682 568C627 657 531 713 403 713ZM682 549L682 151C625 49 521-3 403-3C242-3 128 155 128 350C128 545 242 703 403 703C521 703 625 650 682 549ZM470 750L480 750L396 853C386 865 375 873 353 873C333 873 320 863 320 852C320 845 325 838 336 831Z"  horiz-adv-x="796" vert-adv-y="1000"  />

      
      <glyph glyph-name="uni0101" unicode="&#x0101;" d="M403 713C193 713 40 550 40 350C40 149 193-13 403-13C531-13 627 43 682 131L682 0L766 0L766 700L682 700L682 568C627 657 531 713 403 713ZM682 549L682 151C625 49 521-3 403-3C242-3 128 155 128 350C128 545 242 703 403 703C521 703 625 650 682 549ZM503 750L503 770L293 770L293 750Z"  horiz-adv-x="796" vert-adv-y="1000"  />

      
      <glyph glyph-name="uni26" unicode="&#x26;" d="M905 10C834 10 831 67 831 162L831 553L915 553L915 563L831 563L831 700L747 700L747 563L677 563L677 557C636 644 552 713 393 713C183 713 30 550 30 350C30 149 183-13 393-13C573-13 711 97 747 255L747 162C747 63 781 0 905 0ZM747 337C747 115 570-3 393-3C232-3 118 155 118 350C118 419 134 491 166 553L747 553ZM393 702C518 702 560 642 592 563L172 563C217 643 291 702 393 702Z"  horiz-adv-x="925" vert-adv-y="1000"  />

      
      <glyph glyph-name="uni0105" unicode="&#x0105;" d="M393 713C183 713 30 550 30 350C30 149 183-13 393-13C521-13 617 43 672 131L672 0C639-12 601-41 601-76C601-98 618-113 648-113C676-113 705-101 751-57L746-53C714-82 690-91 674-91C654-91 640-83 640-67C640-44 644-20 682 0L756 0L756 700L672 700L672 568C617 657 521 713 393 713ZM672 549L672 151C615 49 511-3 393-3C232-3 118 155 118 350C118 545 232 703 393 703C511 703 615 650 672 549Z"  horiz-adv-x="796" vert-adv-y="1000"  />

      
      <glyph glyph-name="unie5" unicode="&#xe5;" d="M403 713C193 713 40 550 40 350C40 149 193-13 403-13C531-13 627 43 682 131L682 0L766 0L766 700L682 700L682 568C627 657 531 713 403 713ZM682 549L682 151C625 49 521-3 403-3C242-3 128 155 128 350C128 545 242 703 403 703C521 703 625 650 682 549ZM358 879C358 901 375 919 397 919C419 919 437 901 437 879C437 857 419 840 397 840C375 840 358 857 358 879ZM338 879C338 846 364 820 397 820C431 820 457 846 457 879C457 913 431 939 397 939C364 939 338 913 338 879Z"  horiz-adv-x="796" vert-adv-y="1000"  />

      
      <glyph glyph-name="uni5e" unicode="&#x5e;" d="M428 447L465 447L245 700L25 447L62 447L245 658Z"  horiz-adv-x="490" vert-adv-y="1000"  />

      
      <glyph glyph-name="uni7e" unicode="&#x7e;" d="M341 346C284 346 226 396 169 396C120 396 80 368 50 337L50 327C79 347 111 359 170 359C227 359 285 309 342 309C391 309 431 337 461 368L461 378C432 358 400 346 341 346Z"  horiz-adv-x="520" vert-adv-y="1000"  />

      
      <glyph glyph-name="uni2a" unicode="&#x2a;" d="M353 380C361 371 367 358 378 358C389 358 400 369 400 380C400 391 388 397 378 405L268 494C270 497 271 500 272 504L400 489C412 488 428 486 434 486C445 486 452 496 452 507C452 518 445 528 434 528C428 528 412 526 400 525L272 510C271 514 270 517 268 520L378 609C388 617 400 623 400 634C400 645 389 656 378 656C367 656 361 643 353 634L264 524C261 526 258 527 254 528L269 669C270 676 271 684 271 690C271 701 262 708 251 708C240 708 231 701 231 690C231 684 232 676 233 669L248 528C244 527 241 526 238 524L149 634C141 643 135 656 124 656C113 656 102 645 102 634C102 623 114 617 124 609L234 520C232 517 230 514 230 510L102 525C90 526 74 528 68 528C57 528 50 518 50 507C50 496 57 486 68 486C74 486 90 488 102 489L230 504C230 500 232 497 234 494L124 405C114 397 102 391 102 380C102 369 113 358 124 358C135 358 141 371 149 380L238 490C241 488 244 486 248 486L233 345C232 338 231 330 231 324C231 313 240 306 251 306C262 306 271 313 271 324C271 330 270 338 269 345L254 486C258 486 261 488 264 490Z"  horiz-adv-x="502" vert-adv-y="1000"  />

      
      <glyph glyph-name="uni40" unicode="&#x40;" d="M405 610C459 610 461 538 461 471L461 450L406 450C324 450 257 383 257 301L257 249C257 167 324 100 406 100L663 100C724 165 759 254 759 350C759 548 617 709 409 709C201 709 50 548 50 350C50 152 201-9 409-9C459-9 502-4 545 13L545 43C507 17 458 1 409 1C213 1 110 163 110 350C110 537 213 699 409 699C605 699 699 537 699 350C699 277 680 168 630 110L545 110L545 471C545 540 512 620 405 620L309 620L309 480L319 480L319 610ZM461 110L406 110C370 110 341 144 341 186L341 363C341 405 370 440 406 440L461 440Z"  horiz-adv-x="809" vert-adv-y="1000"  />

      
      <glyph glyph-name="unie3" unicode="&#xe3;" d="M403 713C193 713 40 550 40 350C40 149 193-13 403-13C531-13 627 43 682 131L682 0L766 0L766 700L682 700L682 568C627 657 531 713 403 713ZM682 549L682 151C625 49 521-3 403-3C242-3 128 155 128 350C128 545 242 703 403 703C521 703 625 650 682 549ZM456 782C418 782 385 807 346 807C324 807 293 793 282 755L288 750C303 771 321 775 339 775C377 775 410 750 449 750C471 750 502 764 513 802L507 807C492 786 474 782 456 782Z"  horiz-adv-x="796" vert-adv-y="1000"  />

      
      <glyph glyph-name="uni62" unicode="&#x62;" d="M139 0C310 0 408 144 408 325C408 505 310 650 139 650L124 650L124 750L40 750L40 0ZM139 640C256 640 324 504 324 325C324 147 256 10 139 10L124 10L124 640Z"  horiz-adv-x="418" vert-adv-y="1000"  />

      
      <glyph glyph-name="uni5c" unicode="&#x5c;" d="M347-50L402-50L55 750L0 750Z"  horiz-adv-x="402" vert-adv-y="1000"  />

      
      <glyph glyph-name="uni7c" unicode="&#x7c;" d="M115 750L50 750L50-50L115-50Z"  horiz-adv-x="185" vert-adv-y="1000"  />

      
      <glyph glyph-name="uni7b" unicode="&#x7b;" d="M153 252L39 325L153 398C153 577 156 717 328 749L328 759C140 732 72 548 72 365L10 325L72 284C72 101 140-83 328-110L328-100C156-68 153 72 153 252Z"  horiz-adv-x="338" vert-adv-y="1000"  />

      
      <glyph glyph-name="uni7d" unicode="&#x7d;" d="M185 252C185 72 182-68 10-100L10-110C198-83 266 101 266 284L328 325L266 365C266 548 198 732 10 759L10 749C182 717 185 577 185 398L299 325Z"  horiz-adv-x="358" vert-adv-y="1000"  />

      
      <glyph glyph-name="uni5b" unicode="&#x5b;" d="M124 749L268 749L268 759L50 759L50-109L268-109L268-99L124-99Z"  horiz-adv-x="278" vert-adv-y="1000"  />

      
      <glyph glyph-name="uni5d" unicode="&#x5d;" d="M154-99L10-99L10-109L228-109L228 759L10 759L10 749L154 749Z"  horiz-adv-x="278" vert-adv-y="1000"  />

      
      <glyph glyph-name="uni02D8" unicode="&#x02D8;" d="M182 740C97 740 46 756 6 798L3 796C36 739 95 704 182 704C269 704 328 739 361 796L358 798C318 756 267 740 182 740Z"  horiz-adv-x="363" vert-adv-y="1000"  />

      
      <glyph glyph-name="unia6" unicode="&#xa6;" d="M115 250L50 250L50-50L115-50ZM115 750L50 750L50 450L115 450Z"  horiz-adv-x="185" vert-adv-y="1000"  />

      
      <glyph glyph-name="uni2022" unicode="&#x2022;" d="M50 339C50 287 86 251 138 251C189 251 230 287 230 339C230 390 189 431 138 431C86 431 50 390 50 339Z"  horiz-adv-x="280" vert-adv-y="1000"  />

      
      <glyph glyph-name="uni63" unicode="&#x63;" d="M392 487L392 700C182 700 30 550 30 350C30 150 182 0 392 0L392 10C232 10 118 155 118 350C118 541 227 683 382 689L382 487Z"  horiz-adv-x="412" vert-adv-y="1000"  />

      
      <glyph glyph-name="uni0107" unicode="&#x0107;" d="M392 487L392 700C182 700 30 550 30 350C30 150 182 0 392 0L392 10C232 10 118 155 118 350C118 541 227 683 382 689L382 487ZM365 831C376 838 381 845 381 852C381 863 368 873 348 873C326 873 315 865 305 853L221 750L231 750Z"  horiz-adv-x="402" vert-adv-y="1000"  />

      
      <glyph glyph-name="uni02C7" unicode="&#x02C7;" d="M10 873L0 873L84 770C93 759 108 750 127 750C146 750 161 759 170 770L254 873L244 873L127 793Z"  horiz-adv-x="254" vert-adv-y="1000"  />

      
      <glyph glyph-name="uni010D" unicode="&#x010D;" d="M392 487L392 700C182 700 30 550 30 350C30 150 182 0 392 0L392 10C232 10 118 155 118 350C118 541 227 683 382 689L382 487ZM148 873L138 873L222 770C231 759 246 750 265 750C284 750 299 759 308 770L392 873L382 873L265 793Z"  horiz-adv-x="402" vert-adv-y="1000"  />

      
      <glyph glyph-name="unie7" unicode="&#xe7;" d="M392 487L392 700C182 700 30 550 30 350C30 185 132 54 286 13L245-46C274-49 298-65 298-94C298-113 280-126 263-126C244-126 226-117 210-100L204-106C220-129 248-141 271-141C302-141 342-130 342-95C342-72 316-39 263-39L296 11C326 4 358 0 392 0L392 10C232 10 118 155 118 350C118 541 227 683 382 689L382 487Z"  horiz-adv-x="402" vert-adv-y="1000"  />

      
      <glyph glyph-name="unib8" unicode="&#xb8;" d="M175-7L147-46C176-49 200-65 200-94C200-113 182-126 165-126C146-126 128-117 112-100L106-106C122-129 150-141 173-141C204-141 244-130 244-95C244-72 218-39 165-39L187-7Z"  horiz-adv-x="420" vert-adv-y="1000"  />

      
      <glyph glyph-name="unia2" unicode="&#xa2;" d="M279 800L269 800L269 681C255 677 242 671 229 665L229 800L219 800L219 661C103 604 30 489 30 350C30 211 103 96 219 39L219-113L229-113L229 34C242 28 255 23 269 18L269-113L279-113L279 15C314 5 352 0 392 0L392 10C351 10 313 19 279 37L279 662C310 678 344 687 382 689L382 487L392 487L392 700C352 700 314 694 279 684ZM118 350C118 463 156 558 219 619L219 80C156 141 118 237 118 350ZM229 71L229 628C241 639 255 648 269 656L269 42C255 50 241 60 229 71Z"  horiz-adv-x="402" vert-adv-y="1000"  />

      
      <glyph glyph-name="uni02C6" unicode="&#x02C6;" d="M127 830L244 750L254 750L170 853C161 864 146 873 127 873C108 873 93 864 84 853L0 750L10 750Z"  horiz-adv-x="254" vert-adv-y="1000"  />

      
      <glyph glyph-name="uni3a" unicode="&#x3a;" d="M50 464C50 438 69 419 95 419C122 419 142 438 142 464C142 491 122 513 95 513C69 513 50 491 50 464ZM50 32C50 6 69-13 95-13C122-13 142 6 142 32C142 59 122 81 95 81C69 81 50 59 50 32Z"  horiz-adv-x="192" vert-adv-y="1000"  />

      
      <glyph glyph-name="uni2c" unicode="&#x2c;" d="M50 32C50 0 81-23 106-40C97-74 78-103 54-137L63-144C97-102 142-47 142 32C142 59 122 81 95 81C69 81 50 59 50 32Z"  horiz-adv-x="192" vert-adv-y="1000"  />

      
      <glyph glyph-name="uniF6C3" unicode="&#xF6C3;" d="M50-85C50-117 77-136 102-153C93-177 79-196 54-224L63-231C107-197 142-144 142-85C142-58 122-36 95-36C69-36 50-58 50-85Z"  horiz-adv-x="300" vert-adv-y="1000"  />

      
      <glyph glyph-name="unia9" unicode="&#xa9;" d="M230 351C230 255 263 92 419 92C464 92 524 110 561 142L568 134C531 102 471 82 419 82C241 82 150 233 150 351C150 469 241 620 419 620C471 620 531 600 568 568L561 560C524 592 464 610 419 610C263 610 230 447 230 351ZM50 350C50 152 201-9 409-9C617-9 759 152 759 350C759 548 617 709 409 709C201 709 50 548 50 350ZM733 350C733 166 602 17 409 17C216 17 75 166 75 350C75 534 216 683 409 683C602 683 733 534 733 350Z"  horiz-adv-x="809" vert-adv-y="1000"  />

      
      <glyph glyph-name="uni64" unicode="&#x64;" d="M378 0L378 750L294 750L294 650L279 650C108 650 10 505 10 325C10 144 108 0 279 0ZM294 640L294 10L279 10C162 10 94 147 94 325C94 504 162 640 279 640Z"  horiz-adv-x="418" vert-adv-y="1000"  />

      
      <glyph glyph-name="uni2020" unicode="&#x2020;" d="M400 492L400 552L253 527L253 700L198 700L198 527L50 552L50 492L198 517L198 0L253 0L253 517Z"  horiz-adv-x="450" vert-adv-y="1000"  />

      
      <glyph glyph-name="uni2021" unicode="&#x2021;" d="M253 183L253 517L400 492L400 552L253 527L253 700L198 700L198 527L50 552L50 492L198 517L198 183L50 208L50 148L198 173L198 0L253 0L253 173L400 148L400 208Z"  horiz-adv-x="450" vert-adv-y="1000"  />

      
      <glyph glyph-name="uni010F" unicode="&#x010F;" d="M378 0L378 750L294 750L294 650L279 650C108 650 10 505 10 325C10 144 108 0 279 0ZM294 640L294 10L279 10C162 10 94 147 94 325C94 504 162 640 279 640ZM458 651C458 619 489 596 514 579C505 545 486 516 462 482L471 475C505 517 550 572 550 651C550 678 530 700 503 700C477 700 458 678 458 651Z"  horiz-adv-x="550" vert-adv-y="1000"  />

      
      <glyph glyph-name="unib0" unicode="&#xb0;" d="M50 598C50 542 95 497 151 497C207 497 253 542 253 598C253 654 207 700 151 700C95 700 50 654 50 598ZM77 598C77 638 111 672 151 672C191 672 224 638 224 598C224 558 191 525 151 525C111 525 77 558 77 598Z"  horiz-adv-x="303" vert-adv-y="1000"  />

      
      <glyph glyph-name="unia8" unicode="&#xa8;" d="M200 786C200 765 215 750 236 750C257 750 274 765 274 786C274 807 257 823 236 823C215 823 200 807 200 786ZM5 786C5 765 20 750 41 750C62 750 79 765 79 786C79 807 62 823 41 823C20 823 5 807 5 786Z"  horiz-adv-x="279" vert-adv-y="1000"  />

      
      <glyph glyph-name="uni24" unicode="&#x24;" d="M214 800L204 800L204 675C127 643 86 582 86 511C86 427 143 369 204 317L204-6C152-3 84 23 63 130L50 125C73 17 148-14 204-17L204-113L214-113L214-17C227-17 241-15 254-13L254-113L264-113L264-10C347 10 414 82 414 179C414 266 335 326 264 390L264 683C283 687 305 689 329 689L329 487L339 487L339 700C312 700 287 698 264 693L264 800L254 800L254 691C240 688 226 684 214 680ZM352 121C352 67 320 19 264 1L264 266C312 224 352 179 352 121ZM254 275L254-1C241-4 228-6 214-6L214 309C227 297 241 286 254 275ZM254 681L254 399C240 411 226 424 214 437L214 668C226 673 239 678 254 681ZM148 572C148 611 166 643 204 663L204 448C171 484 148 524 148 572Z"  horiz-adv-x="464" vert-adv-y="1000"  />

      
      <glyph glyph-name="uni02D9" unicode="&#x02D9;" d="M41 783C41 764 55 750 74 750C93 750 108 764 108 783C108 802 93 817 74 817C55 817 41 802 41 783Z"  horiz-adv-x="149" vert-adv-y="1000"  />

      
      <glyph glyph-name="uni0131" unicode="&#x0131;" d="M124 630L40 630L40 0L124 0Z"  horiz-adv-x="164" vert-adv-y="1000"  />

      
      <glyph glyph-name="uni65" unicode="&#x65;" d="M739 473C703 616 555 713 393 713C183 713 30 550 30 350C30 149 183-13 393-13C603-13 756 137 756 337L746 337C746 115 570-3 393-3C232-3 118 155 118 350C118 389 123 439 131 473ZM393 702C518 702 615 614 652 483L134 483C171 614 268 702 393 702Z"  horiz-adv-x="786" vert-adv-y="1000"  />

      
      <glyph glyph-name="unie9" unicode="&#xe9;" d="M739 473C703 616 555 713 393 713C183 713 30 550 30 350C30 149 183-13 393-13C603-13 756 137 756 337L746 337C746 115 570-3 393-3C232-3 118 155 118 350C118 389 123 439 131 473ZM393 702C518 702 615 614 652 483L134 483C171 614 268 702 393 702ZM477 831C488 838 493 845 493 852C493 863 480 873 460 873C438 873 427 865 417 853L333 750L343 750Z"  horiz-adv-x="786" vert-adv-y="1000"  />

      
      <glyph glyph-name="uni011B" unicode="&#x011B;" d="M739 473C703 616 555 713 393 713C183 713 30 550 30 350C30 149 183-13 393-13C603-13 756 137 756 337L746 337C746 115 570-3 393-3C232-3 118 155 118 350C118 389 123 439 131 473ZM393 702C518 702 615 614 652 483L134 483C171 614 268 702 393 702ZM276 873L266 873L350 770C359 759 374 750 393 750C412 750 427 759 436 770L520 873L510 873L393 793Z"  horiz-adv-x="786" vert-adv-y="1000"  />

      
      <glyph glyph-name="uniea" unicode="&#xea;" d="M739 473C703 616 555 713 393 713C183 713 30 550 30 350C30 149 183-13 393-13C603-13 756 137 756 337L746 337C746 115 570-3 393-3C232-3 118 155 118 350C118 389 123 439 131 473ZM393 702C518 702 615 614 652 483L134 483C171 614 268 702 393 702ZM393 830L510 750L520 750L436 853C427 864 412 873 393 873C374 873 359 864 350 853L266 750L276 750Z"  horiz-adv-x="786" vert-adv-y="1000"  />

      
      <glyph glyph-name="unieb" unicode="&#xeb;" d="M739 473C703 616 555 713 393 713C183 713 30 550 30 350C30 149 183-13 393-13C603-13 756 137 756 337L746 337C746 115 570-3 393-3C232-3 118 155 118 350C118 389 123 439 131 473ZM393 702C518 702 615 614 652 483L134 483C171 614 268 702 393 702ZM453 786C453 765 468 750 489 750C510 750 527 765 527 786C527 807 510 823 489 823C468 823 453 807 453 786ZM258 786C258 765 273 750 294 750C315 750 332 765 332 786C332 807 315 823 294 823C273 823 258 807 258 786Z"  horiz-adv-x="786" vert-adv-y="1000"  />

      
      <glyph glyph-name="uni0117" unicode="&#x0117;" d="M739 473C703 616 555 713 393 713C183 713 30 550 30 350C30 149 183-13 393-13C603-13 756 137 756 337L746 337C746 115 570-3 393-3C232-3 118 155 118 350C118 389 123 439 131 473ZM393 702C518 702 615 614 652 483L134 483C171 614 268 702 393 702ZM359 783C359 764 373 750 392 750C411 750 426 764 426 783C426 802 411 817 392 817C373 817 359 802 359 783Z"  horiz-adv-x="786" vert-adv-y="1000"  />

      
      <glyph glyph-name="unie8" unicode="&#xe8;" d="M739 473C703 616 555 713 393 713C183 713 30 550 30 350C30 149 183-13 393-13C603-13 756 137 756 337L746 337C746 115 570-3 393-3C232-3 118 155 118 350C118 389 123 439 131 473ZM393 702C518 702 615 614 652 483L134 483C171 614 268 702 393 702ZM443 750L453 750L369 853C359 865 348 873 326 873C306 873 293 863 293 852C293 845 298 838 309 831Z"  horiz-adv-x="786" vert-adv-y="1000"  />

      
      <glyph glyph-name="uni38" unicode="&#x38;" d="M414 552C414 639 344 713 238 713C142 713 62 639 62 552C62 474 95 422 140 383C71 331 30 257 30 193C30 80 124-13 228-13C332-13 436 70 436 183C436 276 387 330 326 371C376 417 414 470 414 552ZM396 153C396 56 317-3 228-3C139-3 80 76 80 193C80 234 96 313 153 372C252 294 396 263 396 153ZM96 581C96 639 143 703 238 703C328 703 374 639 374 551C374 474 353 426 314 379C216 441 96 475 96 581Z"  horiz-adv-x="476" vert-adv-y="1000"  />

      
      <glyph glyph-name="uni2026" unicode="&#x2026;" d="M50 32C50 6 69-13 95-13C122-13 142 6 142 32C142 59 122 81 95 81C69 81 50 59 50 32ZM242 32C242 6 261-13 287-13C314-13 334 6 334 32C334 59 314 81 287 81C261 81 242 59 242 32ZM434 32C434 6 453-13 479-13C506-13 526 6 526 32C526 59 506 81 479 81C453 81 434 59 434 32Z"  horiz-adv-x="576" vert-adv-y="1000"  />

      
      <glyph glyph-name="uni0113" unicode="&#x0113;" d="M739 473C703 616 555 713 393 713C183 713 30 550 30 350C30 149 183-13 393-13C603-13 756 137 756 337L746 337C746 115 570-3 393-3C232-3 118 155 118 350C118 389 123 439 131 473ZM393 702C518 702 615 614 652 483L134 483C171 614 268 702 393 702ZM498 750L498 770L288 770L288 750Z"  horiz-adv-x="786" vert-adv-y="1000"  />

      
      <glyph glyph-name="uni2014" unicode="&#x2014;" d="M620 337L620 372L0 372L0 337Z"  horiz-adv-x="620" vert-adv-y="1000"  />

      
      <glyph glyph-name="uni2013" unicode="&#x2013;" d="M470 337L470 372L50 372L50 337Z"  horiz-adv-x="520" vert-adv-y="1000"  />

      
      <glyph glyph-name="uni0119" unicode="&#x0119;" d="M739 473C703 616 555 713 393 713C183 713 30 550 30 350C30 149 183-13 393-13C404-13 415-13 426-12C401-27 380-49 380-76C380-98 397-113 427-113C455-113 484-101 530-57L525-53C493-82 469-91 453-91C433-91 419-83 419-67C419-47 422-27 446-9C628 13 756 154 756 337L746 337C746 115 570-3 393-3C232-3 118 155 118 350C118 389 123 439 131 473ZM393 702C518 702 615 614 652 483L134 483C171 614 268 702 393 702Z"  horiz-adv-x="786" vert-adv-y="1000"  />

      
      <glyph glyph-name="uni3d" unicode="&#x3d;" d="M400 392L400 417L50 417L50 392ZM400 282L400 307L50 307L50 282Z"  horiz-adv-x="450" vert-adv-y="1000"  />

      
      <glyph glyph-name="unif0" unicode="&#xf0;" d="M133 741C265 690 314 591 342 487C318 524 282 551 232 551C98 551 20 441 20 294C20 147 98-13 232-13C366-13 444 147 444 294C444 524 311 700 136 750ZM232 541C347 541 360 399 360 294C360 196 353-3 232-3C111-3 104 196 104 294C104 393 111 541 232 541Z"  horiz-adv-x="456" vert-adv-y="1000"  />

      
      <glyph glyph-name="uni21" unicode="&#x21;" d="M100 147L135 626C136 646 137 664 137 670C137 690 120 713 95 713C70 713 53 690 53 670C53 664 54 646 55 626L90 147ZM50 32C50 6 69-13 95-13C122-13 142 6 142 32C142 59 122 81 95 81C69 81 50 59 50 32Z"  horiz-adv-x="192" vert-adv-y="1000"  />

      
      <glyph glyph-name="unia1" unicode="&#xa1;" d="M92 553L57 74C56 54 55 36 55 30C55 10 72-13 97-13C122-13 139 10 139 30C139 36 138 54 137 74L102 553ZM142 668C142 694 123 713 97 713C70 713 50 694 50 668C50 641 70 619 97 619C123 619 142 641 142 668Z"  horiz-adv-x="192" vert-adv-y="1000"  />

      
      <glyph glyph-name="uni66" unicode="&#x66;" d="M258 747C312 747 346 725 380 674L390 681C358 730 319 763 238 763C104 763 40 660 40 551L40 0L124 0L124 347L317 347L317 357L124 357L124 551C124 696 187 747 258 747Z"  horiz-adv-x="347" vert-adv-y="1000"  />

      
      <glyph glyph-name="uniFB01" unicode="&#xFB01;" d="M401 630L131 630C150 715 202 747 258 747C281 747 301 743 319 735C318 731 317 725 317 720C317 696 334 679 358 679C382 679 401 696 401 720C401 744 382 763 358 763C344 763 333 757 325 747C303 757 275 763 238 763C137 763 76 705 52 630L0 630L0 620L49 620C43 598 40 574 40 551L40 0L124 0L124 551C124 577 126 600 130 620L317 620L317 0L401 0Z"  horiz-adv-x="441" vert-adv-y="1000"  />

      
      <glyph glyph-name="uni35" unicode="&#x35;" d="M29 428C62 461 96 471 132 471C224 471 271 372 271 279C271 134 207 22 10-48L13-58C241 16 351 133 351 279C351 390 276 481 132 481C107 481 67 474 36 447L72 650L313 650L313 700L71 700L24 430Z"  horiz-adv-x="371" vert-adv-y="1000"  />

      
      <glyph glyph-name="uniFB02" unicode="&#xFB02;" d="M124 551C124 577 126 600 130 620L317 620L317 162C317 63 351 0 475 0L475 10C404 10 401 67 401 162L401 750L317 750C296 758 270 763 238 763C137 763 76 705 52 630L0 630L0 620L49 620C43 598 40 574 40 551L40 0L124 0ZM258 747C281 747 300 743 317 735L317 630L131 630C150 715 202 747 258 747Z"  horiz-adv-x="485" vert-adv-y="1000"  />

      
      <glyph glyph-name="uni34" unicode="&#x34;" d="M424 130L424 160L334 160L334 720L330 720L10 130L254 130L254 0L334 0L334 130ZM254 562L254 160L36 160Z"  horiz-adv-x="439" vert-adv-y="1000"  />

      
      <glyph glyph-name="uni2044" unicode="&#x2044;" d="M529 700L484 700L60 0L105 0Z"  horiz-adv-x="589" vert-adv-y="1000"  />

      
      <glyph glyph-name="uni67" unicode="&#x67;" d="M118 350C118 541 227 683 382 689L382 487L392 487L392 700C182 700 30 550 30 350C30 149 183 0 393 0L435 0L435 341L351 341L351 13C213 36 118 172 118 350Z"  horiz-adv-x="465" vert-adv-y="1000"  />

      
      <glyph glyph-name="unidf" unicode="&#xdf;" d="M268 0C398 0 475 93 475 195C475 369 283 397 283 505C283 557 296 615 410 681C378 730 329 763 238 763C104 763 40 660 40 551L40 0L124 0L124 551C124 696 187 747 258 747C308 747 361 728 393 683C266 609 218 523 218 453C218 320 397 314 397 167C397 87 365 10 268 10Z"  horiz-adv-x="505" vert-adv-y="1000"  />

      
      <glyph glyph-name="uni60" unicode="&#x60;" d="M184 750L194 750L110 853C100 865 89 873 67 873C47 873 34 863 34 852C34 845 39 838 50 831Z"  horiz-adv-x="240" vert-adv-y="1000"  />

      
      <glyph glyph-name="uni3e" unicode="&#x3e;" d="M292 350L40 130L77 130L330 350L77 570L40 570Z"  horiz-adv-x="360" vert-adv-y="1000"  />

      
      <glyph glyph-name="uniab" unicode="&#xab;" d="M352 130L362 130L229 350L362 570L352 570L150 350ZM212 130L222 130L89 350L222 570L212 570L10 350Z"  horiz-adv-x="372" vert-adv-y="1000"  />

      
      <glyph glyph-name="unibb" unicode="&#xbb;" d="M362 350L160 570L150 570L283 350L150 130L160 130ZM222 350L20 570L10 570L143 350L10 130L20 130Z"  horiz-adv-x="372" vert-adv-y="1000"  />

      
      <glyph glyph-name="uni2039" unicode="&#x2039;" d="M212 130L222 130L89 350L222 570L212 570L10 350Z"  horiz-adv-x="232" vert-adv-y="1000"  />

      
      <glyph glyph-name="uni203A" unicode="&#x203A;" d="M222 350L20 570L10 570L143 350L10 130L20 130Z"  horiz-adv-x="232" vert-adv-y="1000"  />

      
      <glyph glyph-name="uni68" unicode="&#x68;" d="M124 0L124 640L139 640C256 640 324 504 324 325L324 0L408 0L408 325C408 505 310 650 139 650L124 650L124 750L40 750L40 0Z"  horiz-adv-x="438" vert-adv-y="1000"  />

      
      <glyph glyph-name="uni02DD" unicode="&#x02DD;" d="M178 831C189 838 194 845 194 852C194 863 181 873 161 873C139 873 128 865 118 853L34 750L44 750ZM298 831C309 838 314 845 314 852C314 863 301 873 281 873C259 873 248 865 238 853L154 750L164 750Z"  horiz-adv-x="480" vert-adv-y="1000"  />

      
      <glyph glyph-name="uni2d" unicode="&#x2d;" d="M240 337L240 372L30 372L30 337Z"  horiz-adv-x="270" vert-adv-y="1000"  />

      
      <glyph glyph-name="uni69" unicode="&#x69;" d="M124 630L40 630L40 0L124 0ZM40 720C40 696 57 679 81 679C105 679 124 696 124 720C124 744 105 763 81 763C57 763 40 744 40 720Z"  horiz-adv-x="164" vert-adv-y="1000"  />

      
      <glyph glyph-name="unied" unicode="&#xed;" d="M124 630L40 630L40 0L124 0ZM146 831C157 838 162 845 162 852C162 863 149 873 129 873C107 873 96 865 86 853L2 750L12 750Z"  horiz-adv-x="164" vert-adv-y="1000"  />

      
      <glyph glyph-name="uniee" unicode="&#xee;" d="M124 630L40 630L40 0L124 0ZM82 830L199 750L209 750L125 853C116 864 101 873 82 873C63 873 48 864 39 853L-45 750L-35 750Z"  horiz-adv-x="164" vert-adv-y="1000"  />

      
      <glyph glyph-name="unief" unicode="&#xef;" d="M124 630L40 630L40 0L124 0ZM128 766C128 745 143 730 164 730C185 730 202 745 202 766C202 787 185 803 164 803C143 803 128 787 128 766ZM-36 766C-36 745-21 730 0 730C21 730 38 745 38 766C38 787 21 803 0 803C-21 803-36 787-36 766Z"  horiz-adv-x="164" vert-adv-y="1000"  />

      
      <glyph glyph-name="uniec" unicode="&#xec;" d="M124 630L40 630L40 0L124 0ZM152 750L162 750L78 853C68 865 57 873 35 873C15 873 2 863 2 852C2 845 7 838 18 831Z"  horiz-adv-x="164" vert-adv-y="1000"  />

      
      <glyph glyph-name="uni012B" unicode="&#x012B;" d="M124 630L40 630L40 0L124 0ZM164 750L164 770L0 770L0 750Z"  horiz-adv-x="164" vert-adv-y="1000"  />

      
      <glyph glyph-name="uni012F" unicode="&#x012F;" d="M40 0C7-12-31-41-31-76C-31-98-14-113 16-113C44-113 73-101 119-57L114-53C82-82 58-91 42-91C22-91 8-83 8-67C8-44 12-20 50 0L124 0L124 630L40 630ZM40 720C40 696 57 679 81 679C105 679 124 696 124 720C124 744 105 763 81 763C57 763 40 744 40 720Z"  horiz-adv-x="164" vert-adv-y="1000"  />

      
      <glyph glyph-name="uni6a" unicode="&#x6a;" d="M40 719C40 695 57 678 81 678C105 678 124 695 124 719C124 743 105 762 81 762C57 762 40 743 40 719ZM-74-133C60-133 124-30 124 79L124 629L40 629L40 79C40-66-3-123-74-123Z"  horiz-adv-x="164" vert-adv-y="1000"  />

      
      <glyph glyph-name="uni6b" unicode="&#x6b;" d="M40 750L40 0L124 0L124 750ZM405 700L391 700L129 425L365 0L465 0L199 483Z"  horiz-adv-x="475" vert-adv-y="1000"  />

      
      <glyph glyph-name="uni6c" unicode="&#x6c;" d="M188 10C117 10 114 67 114 162L114 750L30 750L30 162C30 63 64 0 188 0Z"  horiz-adv-x="198" vert-adv-y="1000"  />

      
      <glyph glyph-name="uni013A" unicode="&#x013A;" d="M188 10C117 10 114 67 114 162L114 750L30 750L30 162C30 63 64 0 188 0ZM203 851C214 858 219 865 219 872C219 883 206 893 186 893C164 893 153 885 143 873L59 770L69 770Z"  horiz-adv-x="198" vert-adv-y="1000"  />

      
      <glyph glyph-name="uni013E" unicode="&#x013E;" d="M188 10C117 10 114 67 114 162L114 750L30 750L30 162C30 63 64 0 188 0ZM175 651C175 619 206 596 231 579C222 545 203 516 179 482L188 475C222 517 267 572 267 651C267 678 247 700 220 700C194 700 175 678 175 651Z"  horiz-adv-x="297" vert-adv-y="1000"  />

      
      <glyph glyph-name="uni3c" unicode="&#x3c;" d="M320 570L283 570L30 350L283 130L320 130L68 350Z"  horiz-adv-x="360" vert-adv-y="1000"  />

      
      <glyph glyph-name="uniac" unicode="&#xac;" d="M360 367L50 367L50 342L335 342L335 227L360 227Z"  horiz-adv-x="410" vert-adv-y="1000"  />

      
      <glyph glyph-name="uni25CA" unicode="&#x25CA;" d="M213 0L232 0L425 350L232 700L213 700L20 350ZM376 350L222 25L69 350L222 675Z"  horiz-adv-x="445" vert-adv-y="1000"  />

      
      <glyph glyph-name="uni0142" unicode="&#x0142;" d="M188 10C117 10 114 67 114 162L114 381L207 447L207 461L114 395L114 750L30 750L30 335L-40 286L-40 272L30 321L30 162C30 63 64 0 188 0Z"  horiz-adv-x="198" vert-adv-y="1000"  />

      
      <glyph glyph-name="uni6d" unicode="&#x6d;" d="M416 700L273 400L127 700L40 700L40 0L50 0L50 677L228 303L238 303L416 681L416 0L500 0L500 700Z"  horiz-adv-x="540" vert-adv-y="1000"  />

      
      <glyph glyph-name="uniaf" unicode="&#xaf;" d="M260 750L260 770L50 770L50 750Z"  horiz-adv-x="310" vert-adv-y="1000"  />

      
      <glyph glyph-name="uni2212" unicode="&#x2212;" d="M50 362L50 337L400 337L400 362Z"  horiz-adv-x="450" vert-adv-y="1000"  />

      
      <glyph glyph-name="unib5" unicode="&#xb5;" d="M70 700L70 183L0 183L0 173L70 173L70 133L0 133L0 123L70 123L70 0L154 0L154 123L356 123L356 133L154 133L154 173L159 173C310 173 408 286 408 436C408 587 310 700 159 700ZM154 183L154 690L159 690C256 690 324 584 324 436C324 287 256 183 159 183Z"  horiz-adv-x="418" vert-adv-y="1000"  />

      
      <glyph glyph-name="unid7" unicode="&#xd7;" d="M360 197L377 215L243 349L378 485L360 502L225 367L90 502L72 485L207 349L73 215L90 197L225 332Z"  horiz-adv-x="450" vert-adv-y="1000"  />

      
      <glyph glyph-name="uni6e" unicode="&#x6e;" d="M124 0L124 690L139 690C256 690 324 554 324 375L324 0L408 0L408 375C408 555 310 700 139 700L40 700L40 0Z"  horiz-adv-x="438" vert-adv-y="1000"  />

      
      <glyph glyph-name="uni0144" unicode="&#x0144;" d="M124 0L124 690L139 690C256 690 324 554 324 375L324 0L408 0L408 375C408 555 310 700 139 700L40 700L40 0ZM283 831C294 838 299 845 299 852C299 863 286 873 266 873C244 873 233 865 223 853L139 750L149 750Z"  horiz-adv-x="438" vert-adv-y="1000"  />

      
      <glyph glyph-name="uni0148" unicode="&#x0148;" d="M124 0L124 690L139 690C256 690 324 554 324 375L324 0L408 0L408 375C408 555 310 700 139 700L40 700L40 0ZM72 873L62 873L146 770C155 759 170 750 189 750C208 750 223 759 232 770L316 873L306 873L189 793Z"  horiz-adv-x="438" vert-adv-y="1000"  />

      
      <glyph glyph-name="uni39" unicode="&#x39;" d="M103-51L106-61C311-11 444 173 444 403C444 550 366 710 232 710C98 710 20 550 20 403C20 256 98 146 232 146C282 146 318 173 342 209C314 105 245 0 103-51ZM232 156C111 156 104 304 104 403C104 501 111 700 232 700C353 700 360 501 360 403C360 298 347 156 232 156Z"  horiz-adv-x="456" vert-adv-y="1000"  />

      
      <glyph glyph-name="unif1" unicode="&#xf1;" d="M124 0L124 690L139 690C256 690 324 554 324 375L324 0L408 0L408 375C408 555 310 700 139 700L40 700L40 0ZM277 782C239 782 206 807 167 807C145 807 114 793 103 755L109 750C124 771 142 775 160 775C198 775 231 750 270 750C292 750 323 764 334 802L328 807C313 786 295 782 277 782Z"  horiz-adv-x="438" vert-adv-y="1000"  />

      
      <glyph glyph-name="uni23" unicode="&#x23;" d="M28 0L95 0L176 220L364 220L284 0L351 0L432 220L544 220L547 230L435 230L527 480L638 480L642 490L531 490L608 700L540 700L463 490L275 490L352 700L284 700L207 490L117 490L113 480L203 480L112 230L22 230L18 220L108 220ZM271 480L459 480L368 230L179 230Z"  horiz-adv-x="658" vert-adv-y="1000"  />

      
      <glyph glyph-name="uni6f" unicode="&#x6f;" d="M269-13C440-13 508 170 508 350C508 531 440 713 269 713C98 713 30 531 30 350C30 170 98-13 269-13ZM269-3C152-3 114 171 114 350C114 528 152 703 269 703C386 703 424 528 424 350C424 171 386-3 269-3Z"  horiz-adv-x="538" vert-adv-y="1000"  />

      
      <glyph glyph-name="unif3" unicode="&#xf3;" d="M269-13C440-13 508 170 508 350C508 531 440 713 269 713C98 713 30 531 30 350C30 170 98-13 269-13ZM269-3C152-3 114 171 114 350C114 528 152 703 269 703C386 703 424 528 424 350C424 171 386-3 269-3ZM333 831C344 838 349 845 349 852C349 863 336 873 316 873C294 873 283 865 273 853L189 750L199 750Z"  horiz-adv-x="538" vert-adv-y="1000"  />

      
      <glyph glyph-name="unif4" unicode="&#xf4;" d="M269-13C440-13 508 170 508 350C508 531 440 713 269 713C98 713 30 531 30 350C30 170 98-13 269-13ZM269-3C152-3 114 171 114 350C114 528 152 703 269 703C386 703 424 528 424 350C424 171 386-3 269-3ZM269 830L386 750L396 750L312 853C303 864 288 873 269 873C250 873 235 864 226 853L142 750L152 750Z"  horiz-adv-x="538" vert-adv-y="1000"  />

      
      <glyph glyph-name="unif6" unicode="&#xf6;" d="M269-13C440-13 508 170 508 350C508 531 440 713 269 713C98 713 30 531 30 350C30 170 98-13 269-13ZM269-3C152-3 114 171 114 350C114 528 152 703 269 703C386 703 424 528 424 350C424 171 386-3 269-3ZM329 786C329 765 344 750 365 750C386 750 403 765 403 786C403 807 386 823 365 823C344 823 329 807 329 786ZM134 786C134 765 149 750 170 750C191 750 208 765 208 786C208 807 191 823 170 823C149 823 134 807 134 786Z"  horiz-adv-x="538" vert-adv-y="1000"  />

      
      <glyph glyph-name="uni0153" unicode="&#x0153;" d="M1133 473C1097 616 949 713 787 713C651 713 540 645 478 543C443 641 376 713 269 713C98 713 30 531 30 350C30 170 98-13 269-13C376-13 442 58 477 156C540 54 651-13 787-13L787-3C626-3 512 155 512 350C512 389 517 439 525 473ZM269-3C152-3 114 171 114 350C114 528 152 703 269 703C386 703 424 528 424 350C424 171 386-3 269-3ZM787 702C912 702 1009 614 1046 483L528 483C565 614 662 702 787 702ZM1150 337C1150 137 997-13 787-13L787-3C964-3 1140 115 1140 337Z"  horiz-adv-x="1180" vert-adv-y="1000"  />

      
      <glyph glyph-name="uni02DB" unicode="&#x02DB;" d="M238 0C205-12 167-41 167-76C167-98 184-113 214-113C242-113 271-101 317-57L312-53C280-82 256-91 240-91C220-91 206-83 206-67C206-44 210-20 248 0Z"  horiz-adv-x="420" vert-adv-y="1000"  />

      
      <glyph glyph-name="unif2" unicode="&#xf2;" d="M269-13C440-13 508 170 508 350C508 531 440 713 269 713C98 713 30 531 30 350C30 170 98-13 269-13ZM269-3C152-3 114 171 114 350C114 528 152 703 269 703C386 703 424 528 424 350C424 171 386-3 269-3ZM339 750L349 750L265 853C255 865 244 873 222 873C202 873 189 863 189 852C189 845 194 838 205 831Z"  horiz-adv-x="538" vert-adv-y="1000"  />

      
      <glyph glyph-name="uni0151" unicode="&#x0151;" d="M269-13C440-13 508 170 508 350C508 531 440 713 269 713C98 713 30 531 30 350C30 170 98-13 269-13ZM269-3C152-3 114 171 114 350C114 528 152 703 269 703C386 703 424 528 424 350C424 171 386-3 269-3ZM323 831C334 838 339 845 339 852C339 863 326 873 306 873C284 873 273 865 263 853L179 750L189 750ZM443 831C454 838 459 845 459 852C459 863 446 873 426 873C404 873 393 865 383 853L299 750L309 750Z"  horiz-adv-x="538" vert-adv-y="1000"  />

      
      <glyph glyph-name="uni014D" unicode="&#x014D;" d="M269-13C440-13 508 170 508 350C508 531 440 713 269 713C98 713 30 531 30 350C30 170 98-13 269-13ZM269-3C152-3 114 171 114 350C114 528 152 703 269 703C386 703 424 528 424 350C424 171 386-3 269-3ZM374 750L374 770L164 770L164 750Z"  horiz-adv-x="538" vert-adv-y="1000"  />

      
      <glyph glyph-name="uni31" unicode="&#x31;" d="M10 656C48 656 79 658 116 666L116 0L200 0L200 720L196 720C134 680 81 666 10 666Z"  horiz-adv-x="240" vert-adv-y="1000"  />

      
      <glyph glyph-name="uniaa" unicode="&#xaa;" d="M372 702L372 648C339 691 289 713 237 713C153 713 30 644 30 506C30 368 153 299 237 299C289 299 339 320 372 364L372 309L444 309L444 702ZM102 506C102 640 153 703 237 703C289 703 340 678 372 629L372 382C340 333 288 309 237 309C153 309 102 372 102 506Z"  horiz-adv-x="474" vert-adv-y="1000"  />

      
      <glyph glyph-name="uniba" unicode="&#xba;" d="M444 506C444 644 321 713 237 713C153 713 30 644 30 506C30 368 153 299 237 299C321 299 444 368 444 506ZM102 506C102 640 153 702 237 702C321 702 372 640 372 506C372 372 321 309 237 309C153 309 102 372 102 506Z"  horiz-adv-x="474" vert-adv-y="1000"  />

      
      <glyph glyph-name="unif8" unicode="&#xf8;" d="M498 700L483 700L436 625C397 679 343 713 269 713C98 713 30 531 30 350C30 253 50 155 94 86L40 0L55 0L102 74C140 21 195-13 269-13C440-13 508 170 508 350C508 447 488 544 443 614ZM269-3C203-3 162 52 139 133L403 550C418 491 424 421 424 350C424 171 386-3 269-3ZM114 350C114 528 152 703 269 703C335 703 376 647 399 567L134 149C120 208 114 279 114 350Z"  horiz-adv-x="538" vert-adv-y="1000"  />

      
      <glyph glyph-name="unif5" unicode="&#xf5;" d="M269-13C440-13 508 170 508 350C508 531 440 713 269 713C98 713 30 531 30 350C30 170 98-13 269-13ZM269-3C152-3 114 171 114 350C114 528 152 703 269 703C386 703 424 528 424 350C424 171 386-3 269-3ZM327 782C289 782 256 807 217 807C195 807 164 793 153 755L159 750C174 771 192 775 210 775C248 775 281 750 320 750C342 750 373 764 384 802L378 807C363 786 345 782 327 782Z"  horiz-adv-x="538" vert-adv-y="1000"  />

      
      <glyph glyph-name="uni70" unicode="&#x70;" d="M40 700L40-50L124-50L124 50L139 50C310 50 408 195 408 375C408 556 310 700 139 700ZM124 60L124 690L139 690C256 690 324 553 324 375C324 196 256 60 139 60Z"  horiz-adv-x="418" vert-adv-y="1000"  />

      
      <glyph glyph-name="unib6" unicode="&#xb6;" d="M242 334L242 0L292 0L292 690L342 690L342 0L392 0L392 690L442 690L442 700L231 700C87 700 35 603 35 517C35 431 87 334 231 334Z"  horiz-adv-x="492" vert-adv-y="1000"  />

      
      <glyph glyph-name="uni28" unicode="&#x28;" d="M104 325C104 521 162 709 318 749L318 759C155 717 20 523 20 325C20 127 155-67 318-109L318-99C162-59 104 129 104 325Z"  horiz-adv-x="328" vert-adv-y="1000"  />

      
      <glyph glyph-name="uni29" unicode="&#x29;" d="M224 325C224 129 166-59 10-99L10-109C173-67 308 127 308 325C308 523 173 717 10 759L10 749C166 709 224 521 224 325Z"  horiz-adv-x="328" vert-adv-y="1000"  />

      
      <glyph glyph-name="uni25" unicode="&#x25;" d="M328 100C328 44 372 0 428 0C484 0 529 44 529 100C529 156 484 201 428 201C372 201 328 156 328 100ZM373 100C373 148 387 191 428 191C469 191 483 148 483 100C483 52 469 10 428 10C387 10 373 52 373 100ZM529 700L484 700L60 0L105 0ZM60 599C60 543 104 499 160 499C216 499 261 543 261 599C261 655 216 700 160 700C104 700 60 655 60 599ZM105 599C105 647 119 690 160 690C201 690 215 647 215 599C215 551 201 509 160 509C119 509 105 551 105 599Z"  horiz-adv-x="589" vert-adv-y="1000"  />

      
      <glyph glyph-name="uni2e" unicode="&#x2e;" d="M50 32C50 6 69-13 95-13C122-13 142 6 142 32C142 59 122 81 95 81C69 81 50 59 50 32Z"  horiz-adv-x="192" vert-adv-y="1000"  />

      
      <glyph glyph-name="unib7" unicode="&#xb7;" d="M50 364C50 338 69 317 95 317C122 317 142 338 142 364C142 391 122 411 95 411C69 411 50 391 50 364Z"  horiz-adv-x="192" vert-adv-y="1000"  />

      
      <glyph glyph-name="uni2030" unicode="&#x2030;" d="M568 100C568 44 612 0 668 0C724 0 769 44 769 100C769 156 724 201 668 201C612 201 568 156 568 100ZM613 100C613 148 627 191 668 191C709 191 723 148 723 100C723 52 709 10 668 10C627 10 613 52 613 100ZM328 100C328 44 372 0 428 0C484 0 529 44 529 100C529 156 484 201 428 201C372 201 328 156 328 100ZM373 100C373 148 387 191 428 191C469 191 483 148 483 100C483 52 469 10 428 10C387 10 373 52 373 100ZM529 700L484 700L60 0L105 0ZM60 599C60 543 104 499 160 499C216 499 261 543 261 599C261 655 216 700 160 700C104 700 60 655 60 599ZM105 599C105 647 119 690 160 690C201 690 215 647 215 599C215 551 201 509 160 509C119 509 105 551 105 599Z"  horiz-adv-x="829" vert-adv-y="1000"  />

      
      <glyph glyph-name="uni2b" unicode="&#x2b;" d="M400 337L400 362L238 362L238 525L213 525L213 362L50 362L50 337L213 337L213 175L238 175L238 337Z"  horiz-adv-x="450" vert-adv-y="1000"  />

      
      <glyph glyph-name="uni71" unicode="&#x71;" d="M279 700C108 700 10 556 10 375C10 195 108 50 279 50L294 50L294-50L378-50L378 700ZM279 60C162 60 94 196 94 375C94 553 162 690 279 690L294 690L294 60Z"  horiz-adv-x="418" vert-adv-y="1000"  />

      
      <glyph glyph-name="uni3f" unicode="&#x3f;" d="M84 32C84 6 103-13 129-13C156-13 176 6 176 32C176 59 156 81 129 81C103 81 84 59 84 32ZM146 277C278 341 319 417 319 484C319 601 204 700 50 700L50 517L60 517L60 690C176 686 243 593 243 484C243 418 214 352 112 280L124 147L134 147Z"  horiz-adv-x="369" vert-adv-y="1000"  />

      
      <glyph glyph-name="unibf" unicode="&#xbf;" d="M285 668C285 694 266 713 240 713C213 713 193 694 193 668C193 641 213 619 240 619C266 619 285 641 285 668ZM223 423C91 359 50 283 50 216C50 99 165 0 319 0L319 183L309 183L309 10C193 14 126 107 126 216C126 282 155 348 257 420L245 553L235 553Z"  horiz-adv-x="369" vert-adv-y="1000"  />

      
      <glyph glyph-name="uni22" unicode="&#x22;" d="M140 517L150 517L187 680C189 690 190 698 190 704C190 716 178 726 165 726C154 726 140 719 140 700ZM50 517L60 517L97 680C99 690 100 698 100 704C100 716 88 726 75 726C64 726 50 719 50 700Z"  horiz-adv-x="240" vert-adv-y="1000"  />

      
      <glyph glyph-name="uni201E" unicode="&#x201E;" d="M180 32C180 0 211-23 236-40C227-74 208-103 184-137L193-144C227-102 272-47 272 32C272 59 252 81 225 81C199 81 180 59 180 32ZM50 32C50 0 81-23 106-40C97-74 78-103 54-137L63-144C97-102 142-47 142 32C142 59 122 81 95 81C69 81 50 59 50 32Z"  horiz-adv-x="322" vert-adv-y="1000"  />

      
      <glyph glyph-name="uni201C" unicode="&#x201C;" d="M142 524C142 556 111 579 86 596C95 630 114 659 138 693L129 700C95 658 50 603 50 524C50 497 70 475 97 475C123 475 142 497 142 524ZM272 524C272 556 241 579 216 596C225 630 244 659 268 693L259 700C225 658 180 603 180 524C180 497 200 475 227 475C253 475 272 497 272 524Z"  horiz-adv-x="322" vert-adv-y="1000"  />

      
      <glyph glyph-name="uni201D" unicode="&#x201D;" d="M180 651C180 619 211 596 236 579C227 545 208 516 184 482L193 475C227 517 272 572 272 651C272 678 252 700 225 700C199 700 180 678 180 651ZM50 651C50 619 81 596 106 579C97 545 78 516 54 482L63 475C97 517 142 572 142 651C142 678 122 700 95 700C69 700 50 678 50 651Z"  horiz-adv-x="322" vert-adv-y="1000"  />

      
      <glyph glyph-name="uni2018" unicode="&#x2018;" d="M142 524C142 556 111 579 86 596C95 630 114 659 138 693L129 700C95 658 50 603 50 524C50 497 70 475 97 475C123 475 142 497 142 524Z"  horiz-adv-x="192" vert-adv-y="1000"  />

      
      <glyph glyph-name="uni2019" unicode="&#x2019;" d="M50 651C50 619 81 596 106 579C97 545 78 516 54 482L63 475C97 517 142 572 142 651C142 678 122 700 95 700C69 700 50 678 50 651Z"  horiz-adv-x="192" vert-adv-y="1000"  />

      
      <glyph glyph-name="uni201A" unicode="&#x201A;" d="M50 32C50 0 81-23 106-40C97-74 78-103 54-137L63-144C97-102 142-47 142 32C142 59 122 81 95 81C69 81 50 59 50 32Z"  horiz-adv-x="192" vert-adv-y="1000"  />

      
      <glyph glyph-name="uni27" unicode="&#x27;" d="M50 517L60 517L97 680C99 690 100 698 100 704C100 716 88 726 75 726C64 726 50 719 50 700Z"  horiz-adv-x="150" vert-adv-y="1000"  />

      
      <glyph glyph-name="uni72" unicode="&#x72;" d="M497 82C497 45 477 7 439 7C338 7 322 415 165 475C249 486 294 526 294 586C294 655 236 700 129 700L40 700L40 0L124 0L124 473C225 473 224-13 410-13C460-13 507 19 507 82ZM129 690C193 690 236 653 236 586C236 520 193 483 129 483L124 483L124 690Z"  horiz-adv-x="517" vert-adv-y="1000"  />

      
      <glyph glyph-name="uni0155" unicode="&#x0155;" d="M497 82C497 45 477 7 439 7C338 7 322 415 165 475C249 486 294 526 294 586C294 655 236 700 129 700L40 700L40 0L124 0L124 473C225 473 224-13 410-13C460-13 507 19 507 82ZM129 690C193 690 236 653 236 586C236 520 193 483 129 483L124 483L124 690ZM262 831C273 838 278 845 278 852C278 863 265 873 245 873C223 873 212 865 202 853L118 750L128 750Z"  horiz-adv-x="517" vert-adv-y="1000"  />

      
      <glyph glyph-name="uni0159" unicode="&#x0159;" d="M497 82C497 45 477 7 439 7C338 7 322 415 165 475C249 486 294 526 294 586C294 655 236 700 129 700L40 700L40 0L124 0L124 473C225 473 224-13 410-13C460-13 507 19 507 82ZM129 690C193 690 236 653 236 586C236 520 193 483 129 483L124 483L124 690ZM51 873L41 873L125 770C134 759 149 750 168 750C187 750 202 759 211 770L295 873L285 873L168 793Z"  horiz-adv-x="517" vert-adv-y="1000"  />

      
      <glyph glyph-name="uniae" unicode="&#xae;" d="M50 350C50 152 201-9 409-9C617-9 759 152 759 350C759 548 617 709 409 709C201 709 50 548 50 350ZM733 350C733 166 602 17 409 17C216 17 75 166 75 350C75 534 216 683 409 683C602 683 733 534 733 350ZM605 168C605 142 589 127 566 127C541 127 502 159 485 176C462 199 432 220 385 235C497 245 561 322 561 421C561 529 487 610 359 610L285 610L285 110L348 110L348 233C430 233 439 101 541 101C578 101 612 123 612 168ZM348 243L348 600L359 600C447 600 498 527 498 421C498 315 447 243 359 243Z"  horiz-adv-x="809" vert-adv-y="1000"  />

      
      <glyph glyph-name="uni02DA" unicode="&#x02DA;" d="M61 809C61 831 78 849 100 849C122 849 140 831 140 809C140 787 122 770 100 770C78 770 61 787 61 809ZM41 809C41 776 67 750 100 750C134 750 160 776 160 809C160 843 134 869 100 869C67 869 41 843 41 809Z"  horiz-adv-x="201" vert-adv-y="1000"  />

      
      </font>
</defs>
</svg>
